{"glyphs":{"0":{"ha":1173,"x_min":0,"x_max":969,"o":"m 775 678 l 775 678 q 912 622 856 678 q 969 484 969 565 l 969 194 q 912 57 969 113 q 775 0 856 0 l 194 0 q 57 57 114 0 q 0 194 0 113 l 0 484 q 57 622 0 565 q 194 678 114 678 l 775 678 m 833 504 l 833 504 q 817 545 833 528 q 775 562 800 562 l 194 562 q 153 545 170 562 q 136 504 136 528 l 136 174 q 153 133 136 151 q 194 116 170 116 l 775 116 q 817 133 800 116 q 833 174 833 151 l 833 504 z "},"1":{"ha":475,"x_min":0,"x_max":271,"o":"m 271 672 l 271 672 q 270 676 271 675 q 266 678 268 678 l 6 678 q 2 676 3 678 q 0 672 0 675 l 0 568 q 2 563 0 565 q 6 562 3 562 l 136 562 l 136 5 q 137 2 136 3 q 142 0 139 0 l 266 0 q 270 2 268 0 q 271 5 271 3 l 271 672 z "},"2":{"ha":1173,"x_min":0,"x_max":969,"o":"m 833 503 l 833 503 q 816 545 833 528 q 775 562 799 562 l 45 562 q 40 563 42 562 q 39 568 39 565 l 39 672 q 40 676 39 675 q 45 678 42 678 l 775 678 q 912 621 855 678 q 969 484 969 564 l 969 475 q 912 337 969 394 q 775 281 855 281 l 194 281 q 153 264 170 281 q 136 222 136 247 l 136 116 l 924 116 q 928 114 926 116 q 930 110 930 113 l 930 5 q 928 2 930 3 q 924 0 926 0 l 6 0 q 2 2 3 0 q 0 5 0 3 l 0 203 q 57 340 0 283 q 194 397 113 397 l 775 397 q 816 414 799 397 q 833 455 833 431 l 833 503 z "},"3":{"ha":1173,"x_min":0,"x_max":969,"o":"m 969 485 l 969 485 l 969 475 q 913 339 969 396 q 969 203 969 283 l 969 194 q 912 57 969 114 q 775 0 856 0 l 6 0 q 2 2 3 0 q 0 6 0 4 l 0 111 q 2 115 0 113 q 6 117 4 117 l 775 117 q 817 134 800 117 q 833 175 833 151 l 833 223 q 817 264 833 247 q 775 281 800 281 l 103 281 q 99 283 100 281 q 97 287 97 285 l 97 392 q 99 396 97 394 q 103 397 100 397 l 775 397 q 817 414 800 397 q 833 456 833 431 l 833 504 q 817 545 833 528 q 775 562 800 562 l 6 562 q 2 564 4 562 q 0 568 0 566 l 0 673 q 2 676 0 675 q 6 678 4 678 l 775 678 q 912 622 856 678 q 969 485 969 565 z "},"4":{"ha":1173,"x_min":0,"x_max":969,"o":"m 833 673 l 833 673 q 835 676 833 675 q 840 678 837 678 l 963 678 q 967 676 966 678 q 969 673 969 675 l 969 6 q 967 2 969 3 q 963 0 966 0 l 840 0 q 835 2 837 0 q 833 6 833 3 l 833 223 l 194 223 q 57 280 114 223 q 0 417 0 336 l 0 673 q 2 676 0 675 q 6 678 3 678 l 130 678 q 134 676 132 678 q 136 673 136 675 l 136 397 q 153 356 136 374 q 194 339 170 339 l 833 339 l 833 673 z "},"5":{"ha":1173,"x_min":0,"x_max":969,"o":"m 136 562 l 136 562 l 924 562 q 929 564 927 562 q 930 568 930 566 l 930 673 q 929 676 930 675 q 924 678 927 678 l 6 678 q 2 676 3 678 q 0 673 0 675 l 0 287 q 2 283 0 285 q 6 281 3 281 l 775 281 q 817 264 800 281 q 833 223 833 247 l 833 175 q 817 134 833 151 q 775 117 800 117 l 6 117 q 2 115 3 117 q 0 111 0 113 l 0 6 q 2 2 0 3 q 6 0 3 0 l 775 0 q 912 57 856 0 q 969 194 969 114 l 969 203 q 912 341 969 284 q 775 397 856 397 l 136 397 l 136 562 z "},"6":{"ha":1172,"x_min":0,"x_max":968,"o":"m 930 568 l 930 568 q 928 564 930 566 q 924 562 926 562 l 193 562 q 153 545 170 562 q 136 504 136 528 l 136 397 l 774 397 q 912 341 855 397 q 968 203 968 284 l 968 194 q 912 57 968 114 q 774 0 855 0 l 193 0 q 57 57 113 0 q 0 194 0 114 l 0 485 q 57 622 0 565 q 193 678 113 678 l 924 678 q 928 676 926 678 q 930 673 930 675 l 930 568 m 833 223 l 833 223 q 816 264 833 247 q 774 281 799 281 l 136 281 l 136 174 q 153 134 136 151 q 193 117 170 117 l 774 117 q 816 134 799 117 q 833 174 833 151 l 833 223 z "},"7":{"ha":1173,"x_min":0,"x_max":969,"o":"m 0 568 l 0 568 q 2 563 0 565 q 6 562 3 562 l 775 562 q 817 545 800 562 q 833 504 833 528 l 833 5 q 835 2 833 3 q 839 0 837 0 l 963 0 q 967 2 966 0 q 969 5 969 3 l 969 484 q 912 621 969 564 q 775 678 855 678 l 6 678 q 2 676 3 678 q 0 672 0 675 l 0 568 z "},"8":{"ha":1172,"x_min":0,"x_max":968,"o":"m 968 484 l 968 484 l 968 475 q 913 339 968 395 q 968 203 968 283 l 968 193 q 912 57 968 113 q 775 0 855 0 l 194 0 q 57 57 113 0 q 0 193 0 113 l 0 203 q 56 339 0 283 q 0 475 0 395 l 0 484 q 57 621 0 564 q 194 678 113 678 l 775 678 q 912 621 855 678 q 968 484 968 564 m 833 174 l 833 174 l 833 222 q 816 264 833 247 q 775 281 799 281 l 194 281 q 153 264 170 281 q 136 222 136 247 l 136 174 q 153 133 136 150 q 194 116 170 116 l 775 116 q 816 133 799 116 q 833 174 833 150 m 833 455 l 833 455 l 833 503 q 816 545 833 528 q 775 562 799 562 l 194 562 q 153 545 170 562 q 136 503 136 528 l 136 455 q 153 414 136 431 q 194 397 170 397 l 775 397 q 816 414 799 397 q 833 455 833 431 z "},"9":{"ha":1173,"x_min":0,"x_max":969,"o":"m 39 110 l 39 110 q 40 114 39 113 q 45 116 42 116 l 775 116 q 816 133 799 116 q 833 174 833 150 l 833 281 l 194 281 q 57 337 113 281 q 0 475 0 394 l 0 484 q 57 621 0 564 q 194 678 113 678 l 775 678 q 912 621 855 678 q 969 484 969 564 l 969 193 q 912 57 969 113 q 775 0 855 0 l 45 0 q 40 2 42 0 q 39 5 39 3 l 39 110 m 136 455 l 136 455 q 153 414 136 431 q 194 397 170 397 l 833 397 l 833 503 q 816 545 833 528 q 775 562 799 562 l 194 562 q 153 545 170 562 q 136 503 136 528 l 136 455 z "},"\u0000":{"ha":0,"x_min":0,"x_max":0,"o":""},"\u001d":{"ha":0,"x_min":0,"x_max":0,"o":""}," ":{"ha":678,"x_min":0,"x_max":0,"o":""}," ":{"ha":678,"x_min":0,"x_max":0,"o":""},"!":{"ha":339,"x_min":0,"x_max":136,"o":"m 136 672 l 136 672 q 134 676 136 675 q 130 678 132 678 l 5 678 q 2 676 3 678 q 0 672 0 675 l 0 218 q 2 215 0 216 q 5 213 3 213 l 130 213 q 134 215 132 213 q 136 218 136 216 l 136 672 m 134 0 l 134 0 q 135 0 135 0 q 136 1 136 0 l 136 115 q 135 116 136 115 q 134 116 135 116 l 1 116 q 0 116 0 116 q 0 115 0 115 l 0 1 q 0 0 0 0 q 1 0 0 0 l 134 0 z "},"\"":{"ha":552,"x_min":0,"x_max":349,"o":"m 349 672 l 349 672 q 347 676 349 675 q 342 678 345 678 l 238 678 q 234 676 236 678 q 233 673 233 675 l 233 393 q 234 390 233 391 q 238 388 236 388 l 324 388 q 328 389 326 388 q 330 393 330 391 l 349 672 m 0 672 l 0 672 q 2 676 0 675 q 6 678 3 678 l 111 678 q 114 676 113 678 q 116 673 116 675 l 116 393 q 114 390 116 391 q 111 388 113 388 l 24 388 q 21 389 22 388 q 19 393 19 391 l 0 672 z "},"#":{"ha":1170,"x_min":0,"x_max":966,"o":"m 960 514 l 960 514 q 965 512 963 514 q 966 507 966 509 l 936 401 q 930 397 934 397 l 704 397 l 670 281 l 894 281 q 898 279 897 281 q 899 274 900 277 l 869 169 q 864 165 867 165 l 636 165 l 590 6 q 588 2 590 3 q 584 0 587 0 l 460 0 q 456 2 458 0 q 454 6 454 3 l 500 165 l 365 165 l 319 6 q 317 2 319 3 q 313 0 315 0 l 189 0 q 185 2 186 0 q 183 6 183 3 l 229 165 l 7 165 q 2 167 3 165 q 1 172 0 170 l 31 277 q 37 281 33 281 l 263 281 l 297 397 l 73 397 q 68 400 70 397 q 67 405 66 402 l 97 509 q 103 514 99 514 l 330 514 l 377 673 q 379 676 377 675 q 382 678 380 678 l 507 678 q 511 676 509 678 q 513 673 513 675 l 466 514 l 602 514 l 648 673 q 650 676 648 675 q 654 678 652 678 l 778 678 q 782 676 781 678 q 784 673 784 675 l 737 514 l 960 514 m 534 281 l 534 281 l 568 397 l 433 397 l 399 281 l 534 281 z "},"$":{"ha":1170,"x_min":0,"x_max":966,"o":"m 773 397 l 773 397 q 910 340 853 397 q 966 203 966 283 l 966 193 q 910 57 966 113 q 773 0 853 0 l 551 0 l 551 -110 q 549 -114 551 -113 q 545 -116 547 -116 l 421 -116 q 417 -114 419 -116 q 416 -110 416 -113 l 416 0 l 44 0 q 40 2 42 0 q 39 6 39 3 l 39 111 q 40 114 39 113 q 44 116 42 116 l 416 116 l 416 281 l 193 281 q 57 337 113 281 q 0 474 0 394 l 0 484 q 57 620 0 564 q 193 677 113 677 l 416 677 l 416 787 q 417 791 416 789 q 421 793 419 793 l 545 793 q 549 791 547 793 q 551 787 551 789 l 551 677 l 922 677 q 926 675 924 677 q 928 671 928 673 l 928 567 q 926 563 928 564 q 922 561 924 561 l 551 561 l 551 397 l 773 397 m 193 397 l 193 397 l 416 397 l 416 561 l 193 561 q 152 544 169 561 q 135 503 135 527 l 135 454 q 152 414 135 431 q 193 397 169 397 m 831 174 l 831 174 l 831 222 q 814 263 831 246 q 773 281 798 281 l 551 281 l 551 116 l 773 116 q 814 133 798 116 q 831 174 831 150 z "},"%":{"ha":863,"x_min":0,"x_max":659,"o":"m 596 670 l 596 670 q 596 675 597 673 q 591 678 594 678 l 449 678 q 444 675 446 678 l 63 9 q 63 3 62 6 q 68 0 65 0 l 210 0 q 215 3 213 0 l 596 670 m 543 0 l 543 0 q 625 34 591 0 q 659 117 659 68 l 659 117 q 625 199 659 165 q 543 233 591 233 l 543 233 q 460 199 494 233 q 427 117 427 165 l 427 117 q 460 34 427 68 q 543 0 494 0 l 543 0 m 117 446 l 117 446 q 199 480 165 446 q 233 562 233 514 l 233 562 q 199 644 233 610 q 117 678 165 678 l 117 678 q 34 644 68 678 q 0 562 0 610 l 0 562 q 34 480 0 514 q 117 446 68 446 l 117 446 z "},"&":{"ha":1269,"x_min":0,"x_max":1065,"o":"m 194 397 l 194 397 l 1060 397 q 1064 395 1062 397 q 1065 391 1065 393 l 1065 287 q 1064 282 1065 284 q 1060 281 1062 281 l 930 281 l 930 174 q 879 51 930 102 q 755 0 828 0 l 174 0 q 51 51 102 0 q 0 174 0 102 l 0 222 q 45 339 0 290 q 0 455 0 388 l 0 504 q 51 627 0 576 q 174 678 102 678 l 789 678 q 792 676 791 678 q 794 672 794 675 l 794 568 q 792 563 794 565 q 789 562 791 562 l 194 562 q 153 545 170 562 q 136 504 136 528 l 136 455 q 153 414 136 431 q 194 397 170 397 m 794 174 l 794 174 l 794 281 l 194 281 q 153 264 170 281 q 136 222 136 247 l 136 174 q 153 133 136 151 q 194 116 170 116 l 736 116 q 777 133 760 116 q 794 174 794 151 z "},"'":{"ha":339,"x_min":0,"x_max":136,"o":"m 136 678 l 136 678 l 0 678 l 20 387 l 116 387 l 136 678 z "},"(":{"ha":455,"x_min":0,"x_max":252,"o":"m 245 -115 q 250 -114 248 -115 q 252 -57 252 -112 q 250 -1 252 -3 q 193 1 248 1 q 153 18 170 1 q 136 59 136 35 l 136 619 q 153 661 136 644 q 193 677 170 677 q 250 679 248 677 q 252 736 252 681 q 250 792 252 790 q 193 793 248 793 q 57 737 113 793 q 0 600 0 680 l 0 78 q 57 -59 0 -2 q 193 -115 113 -115 l 245 -115 z "},")":{"ha":455,"x_min":0,"x_max":252,"o":"m 6 -115 l 58 -115 q 195 -59 138 -115 q 252 78 252 -2 l 252 600 q 195 737 252 680 q 58 793 138 793 q 2 792 3 793 q 0 736 0 790 q 2 679 0 681 q 58 677 3 677 q 99 661 82 677 q 116 619 116 644 l 116 59 q 99 18 116 35 q 58 1 82 1 q 2 -1 3 1 q 0 -57 0 -3 q 2 -114 0 -112 q 6 -115 3 -115 z "},"*":{"ha":681,"x_min":0,"x_max":477,"o":"m 477 465 l 477 465 q 476 460 477 463 q 472 458 475 458 l 298 426 l 420 298 q 422 294 422 296 q 420 290 422 291 l 332 225 q 327 224 329 224 q 323 227 324 225 l 239 382 l 155 227 q 151 224 153 225 q 146 225 149 224 l 58 290 q 56 294 56 291 q 57 298 56 296 l 179 426 l 5 458 q 1 461 3 458 q 1 465 0 463 l 35 569 q 38 573 35 572 q 43 572 40 574 l 202 496 l 178 671 q 180 676 178 674 q 184 678 182 678 l 294 678 q 297 676 296 678 q 299 671 299 674 l 276 496 l 435 572 q 440 573 437 574 q 443 569 442 572 l 477 465 z "},"+":{"ha":688,"x_min":0,"x_max":485,"o":"m 481 406 l 481 406 q 484 405 482 406 q 485 400 485 403 l 485 296 q 484 291 485 293 q 481 290 482 290 l 311 290 l 311 110 q 309 107 311 109 q 304 106 307 106 l 180 106 q 177 107 178 106 q 175 110 175 109 l 175 290 l 5 290 q 1 291 3 290 q 0 296 0 293 l 0 400 q 1 405 0 403 q 5 406 3 406 l 175 406 l 175 586 q 177 589 175 588 q 180 590 178 590 l 304 590 q 309 589 307 590 q 311 586 311 588 l 311 406 l 481 406 z "},",":{"ha":430,"x_min":0,"x_max":227,"o":"m 93 94 l 93 94 q 98 97 95 97 l 220 97 q 225 94 224 97 q 225 88 227 92 l 96 -133 q 92 -136 94 -136 l 7 -136 q 2 -133 3 -136 q 1 -127 0 -130 l 93 94 z "},"-":{"ha":591,"x_min":0,"x_max":388,"o":"m 384 284 l 384 284 q 387 286 385 284 q 388 290 388 288 l 388 395 q 387 398 388 397 q 384 400 385 400 l 5 400 q 1 398 3 400 q 0 395 0 397 l 0 290 q 1 286 0 288 q 5 284 3 284 l 384 284 z "},"­":{"ha":591,"x_min":0,"x_max":388,"o":"m 384 284 l 384 284 q 387 286 385 284 q 388 290 388 288 l 388 395 q 387 398 388 397 q 384 400 385 400 l 5 400 q 1 398 3 400 q 0 395 0 397 l 0 290 q 1 286 0 288 q 5 284 3 284 l 384 284 z "},".":{"ha":339,"x_min":0,"x_max":136,"o":"m 130 0 l 130 0 q 134 2 132 0 q 136 6 136 3 l 136 130 q 134 134 136 132 q 130 136 132 136 l 6 136 q 2 134 3 136 q 0 130 0 132 l 0 6 q 2 2 0 3 q 6 0 3 0 l 130 0 z "},"/":{"ha":625,"x_min":0,"x_max":422,"o":"m 420 670 l 420 670 q 420 676 422 673 q 415 678 418 678 l 292 678 q 287 675 289 678 l 1 8 q 2 3 0 5 q 6 0 3 0 l 130 0 q 135 3 133 0 l 420 670 z "},":":{"ha":339,"x_min":0,"x_max":136,"o":"m 130 0 l 130 0 q 134 2 132 0 q 136 6 136 3 l 136 130 q 134 134 136 132 q 130 136 132 136 l 6 136 q 2 134 3 136 q 0 130 0 132 l 0 6 q 2 2 0 3 q 6 0 3 0 l 130 0 m 130 407 l 130 407 q 133 409 132 407 q 135 413 135 410 l 135 537 q 133 541 135 539 q 130 543 132 543 l 5 543 q 1 541 3 543 q -1 537 -1 539 l -1 413 q 1 409 -1 410 q 5 407 3 407 l 130 407 z "},";":{"ha":430,"x_min":0,"x_max":227,"o":"m 92 94 l 92 94 q 98 97 94 97 l 220 97 q 224 94 223 97 q 224 88 226 92 l 96 -133 q 91 -136 94 -136 l 6 -136 q 1 -133 3 -136 q 1 -127 -1 -130 l 92 94 m 130 406 l 130 406 q 134 408 132 406 q 136 412 136 410 l 136 536 q 134 540 136 538 q 130 542 132 542 l 6 542 q 2 540 3 542 q 0 536 0 538 l 0 412 q 2 408 0 410 q 6 406 3 406 l 130 406 z "},";":{"ha":430,"x_min":0,"x_max":227,"o":"m 92 94 l 92 94 q 98 97 94 97 l 220 97 q 224 94 223 97 q 224 88 226 92 l 96 -133 q 91 -136 94 -136 l 6 -136 q 1 -133 3 -136 q 1 -127 -1 -130 l 92 94 m 130 406 l 130 406 q 134 408 132 406 q 136 412 136 410 l 136 536 q 134 540 136 538 q 130 542 132 542 l 6 542 q 2 540 3 542 q 0 536 0 538 l 0 412 q 2 408 0 410 q 6 406 3 406 l 130 406 z "},"<":{"ha":650,"x_min":0,"x_max":446,"o":"m 446 623 l 446 519 q 443 514 446 516 l 112 341 l 443 169 q 446 163 446 167 l 446 60 q 444 55 446 57 q 437 55 441 54 l 3 281 q 0 287 0 283 l 0 396 q 3 401 0 399 l 437 627 q 444 627 441 629 q 446 623 446 626 l 446 623 z "},"=":{"ha":688,"x_min":0,"x_max":484,"o":"m 480 395 l 480 395 q 483 397 482 395 q 484 401 484 399 l 484 506 q 483 510 484 509 q 480 512 482 512 l 4 512 q 1 510 3 512 q 0 506 0 509 l 0 401 q 1 397 0 399 q 4 395 3 395 l 480 395 m 480 163 l 480 163 q 483 165 482 163 q 484 169 484 167 l 484 273 q 483 278 484 276 q 480 279 482 279 l 4 279 q 1 278 3 279 q 0 273 0 276 l 0 169 q 1 165 0 167 q 4 163 3 163 l 480 163 z "},">":{"ha":650,"x_min":0,"x_max":446,"o":"m 0 623 l 0 623 q 3 627 0 626 q 9 627 5 629 l 443 401 q 446 396 446 399 l 446 287 q 443 281 446 283 l 9 55 q 3 55 5 54 q 0 60 0 57 l 0 163 q 3 169 0 167 l 334 341 l 3 514 q 0 519 0 516 l 0 623 z "},"?":{"ha":1173,"x_min":0,"x_max":969,"o":"m 0 672 l 0 672 q 2 676 0 675 q 6 678 3 678 l 795 678 q 918 627 867 678 q 969 504 969 576 l 969 475 q 918 351 969 402 q 795 300 867 300 l 136 300 l 136 229 q 134 224 136 226 q 130 222 132 222 l 6 222 q 2 224 3 222 q 0 229 0 226 l 0 410 q 2 415 0 413 q 6 416 3 416 l 775 416 q 817 433 800 416 q 833 475 833 450 l 833 504 q 817 545 833 528 q 775 562 800 562 l 6 562 q 2 563 3 562 q 0 568 0 565 l 0 672 m 136 111 l 136 111 q 134 114 136 113 q 130 116 132 116 l 6 116 q 2 114 3 116 q 0 111 0 113 l 0 5 q 2 2 0 3 q 6 0 3 0 l 130 0 q 134 2 132 0 q 136 5 136 3 l 136 111 z "},"@":{"ha":1172,"x_min":0,"x_max":968,"o":"m 0 504 l 0 504 q 51 627 0 576 q 174 678 102 678 l 794 678 q 918 627 867 678 q 968 504 968 576 l 968 6 q 967 2 968 3 q 963 0 965 0 l 465 0 q 341 51 393 0 q 290 174 290 102 l 290 242 q 341 366 290 315 q 465 417 393 417 l 833 417 l 833 504 q 816 545 833 528 q 775 562 799 562 l 194 562 q 153 545 170 562 q 136 504 136 528 l 136 6 q 134 2 136 3 q 130 0 132 0 l 5 0 q 2 2 3 0 q 0 6 0 3 l 0 504 m 833 117 l 833 117 l 833 300 l 484 300 q 443 283 460 300 q 426 242 426 267 l 426 174 q 443 134 426 151 q 484 117 460 117 l 833 117 z "},"A":{"ha":1223,"x_min":0,"x_max":1020,"o":"m 620 627 l 620 627 q 743 678 674 678 l 1014 678 q 1018 676 1017 678 q 1020 672 1020 675 l 1020 5 q 1018 2 1020 3 q 1014 0 1017 0 l 890 0 q 886 2 888 0 q 884 5 884 3 l 884 562 l 771 562 q 730 545 748 562 l 184 1 q 180 0 182 0 l 7 0 q 1 3 3 0 q 3 9 0 7 l 620 627 z "},"B":{"ha":1173,"x_min":0,"x_max":969,"o":"m 969 484 l 969 484 l 969 475 q 913 339 969 395 q 969 203 969 283 l 969 193 q 912 57 969 113 q 775 0 855 0 l 6 0 q 2 2 3 0 q 0 5 0 3 l 0 672 q 2 676 0 675 q 6 678 3 678 l 775 678 q 912 621 855 678 q 969 484 969 564 m 136 562 l 136 562 l 136 397 l 775 397 q 816 414 799 397 q 833 455 833 431 l 833 504 q 816 545 833 528 q 775 562 799 562 l 136 562 m 833 174 l 833 174 l 833 222 q 816 264 833 247 q 775 281 799 281 l 136 281 l 136 116 l 775 116 q 816 133 799 116 q 833 174 833 150 z "},"C":{"ha":1173,"x_min":0,"x_max":969,"o":"m 194 116 l 194 116 q 153 133 170 116 q 136 174 136 151 l 136 504 q 153 545 136 528 q 194 562 170 562 l 963 562 q 967 564 966 562 q 969 568 969 566 l 969 672 q 967 676 969 675 q 963 678 966 678 l 194 678 q 57 622 113 678 q 0 484 0 565 l 0 194 q 57 57 0 113 q 194 0 113 0 l 963 0 q 967 2 966 0 q 969 6 969 3 l 969 111 q 967 114 969 113 q 963 116 966 116 l 194 116 z "},"D":{"ha":1172,"x_min":0,"x_max":968,"o":"m 774 678 l 774 678 q 912 622 855 678 q 968 484 968 565 l 968 194 q 912 57 968 113 q 774 0 855 0 l 5 0 q 2 2 3 0 q 0 6 0 3 l 0 672 q 2 676 0 675 q 5 678 3 678 l 774 678 m 833 504 l 833 504 q 816 545 833 528 q 774 562 799 562 l 136 562 l 136 116 l 774 116 q 816 133 799 116 q 833 174 833 151 l 833 504 z "},"E":{"ha":1173,"x_min":0,"x_max":969,"o":"m 136 504 l 136 504 q 153 545 136 528 q 194 562 170 562 l 963 562 q 967 564 966 562 q 969 568 969 566 l 969 672 q 967 676 969 675 q 963 678 966 678 l 194 678 q 57 622 113 678 q 0 484 0 565 l 0 194 q 57 57 0 113 q 194 0 113 0 l 963 0 q 967 2 966 0 q 969 6 969 3 l 969 111 q 967 114 969 113 q 963 116 966 116 l 194 116 q 153 133 170 116 q 136 174 136 151 l 136 281 l 866 281 q 870 282 869 281 q 872 287 872 284 l 872 391 q 870 396 872 394 q 866 397 869 397 l 136 397 l 136 504 z "},"F":{"ha":1173,"x_min":0,"x_max":969,"o":"m 136 504 l 136 504 q 153 545 136 528 q 194 562 170 562 l 963 562 q 967 564 966 562 q 969 568 969 566 l 969 672 q 967 676 969 675 q 963 678 966 678 l 175 678 q 51 627 102 678 q 0 504 0 576 l 0 6 q 2 2 0 3 q 6 0 3 0 l 130 0 q 134 2 132 0 q 136 6 136 3 l 136 223 l 867 223 q 870 225 869 223 q 872 229 872 227 l 872 333 q 870 337 872 336 q 867 339 869 339 l 136 339 l 136 504 z "},"G":{"ha":1173,"x_min":0,"x_max":969,"o":"m 194 116 l 194 116 q 153 133 170 116 q 136 174 136 151 l 136 504 q 153 545 136 528 q 194 562 170 562 l 963 562 q 967 564 966 562 q 969 568 969 566 l 969 672 q 967 676 969 675 q 963 678 966 678 l 194 678 q 57 622 113 678 q 0 484 0 565 l 0 194 q 57 57 0 113 q 194 0 113 0 l 794 0 q 918 51 867 0 q 969 174 969 102 l 969 333 q 967 337 969 336 q 963 339 966 339 l 839 339 q 835 337 837 339 q 833 333 833 336 l 833 174 q 816 133 833 151 q 775 116 799 116 l 194 116 z "},"H":{"ha":1173,"x_min":0,"x_max":969,"o":"m 969 672 l 969 672 q 967 676 969 675 q 963 678 966 678 l 840 678 q 835 676 837 678 q 833 672 833 675 l 833 397 l 136 397 l 136 672 q 134 676 136 675 q 130 678 132 678 l 6 678 q 2 676 3 678 q 0 672 0 675 l 0 5 q 2 2 0 3 q 6 0 3 0 l 130 0 q 134 2 132 0 q 136 5 136 3 l 136 281 l 833 281 l 833 5 q 835 2 833 3 q 840 0 837 0 l 963 0 q 967 2 966 0 q 969 5 969 3 l 969 672 z "},"I":{"ha":339,"x_min":0,"x_max":136,"o":"m 136 672 l 136 672 q 134 676 136 675 q 130 678 132 678 l 5 678 q 2 676 3 678 q 0 672 0 675 l 0 5 q 2 2 0 3 q 5 0 3 0 l 130 0 q 134 2 132 0 q 136 5 136 3 l 136 672 z "},"J":{"ha":1173,"x_min":0,"x_max":969,"o":"m 969 672 l 969 672 q 967 676 969 675 q 963 678 966 678 l 840 678 q 835 676 837 678 q 833 672 833 675 l 833 174 q 817 133 833 150 q 775 116 800 116 l 194 116 q 153 133 170 116 q 136 174 136 150 l 136 401 q 134 405 136 404 q 130 407 132 407 l 6 407 q 2 405 3 407 q 0 401 0 404 l 0 193 q 57 57 0 113 q 194 0 114 0 l 775 0 q 912 57 856 0 q 969 193 969 113 l 969 672 z "},"K":{"ha":1189,"x_min":0,"x_max":985,"o":"m 867 255 l 867 255 q 810 330 846 298 q 867 404 846 360 l 984 650 q 984 656 985 654 q 979 659 982 659 l 842 659 q 836 655 838 659 l 735 443 q 699 402 722 417 q 648 387 675 387 l 136 387 l 136 672 q 134 676 136 675 q 130 678 132 678 l 6 678 q 2 676 3 678 q 0 672 0 675 l 0 6 q 2 2 0 3 q 6 0 3 0 l 130 0 q 134 2 132 0 q 136 6 136 3 l 136 271 l 648 271 q 699 256 675 271 q 735 216 722 241 l 836 3 q 842 0 838 0 l 979 0 q 984 3 982 0 q 984 8 985 5 l 867 255 z "},"L":{"ha":1172,"x_min":0,"x_max":968,"o":"m 968 111 l 968 111 q 967 114 968 113 q 963 116 965 116 l 194 116 q 153 133 170 116 q 136 174 136 151 l 136 672 q 134 676 136 675 q 130 678 132 678 l 5 678 q 2 676 3 678 q 0 672 0 675 l 0 194 q 57 57 0 113 q 194 0 113 0 l 963 0 q 967 2 965 0 q 968 5 968 3 l 968 111 z "},"M":{"ha":1211,"x_min":0,"x_max":1008,"o":"m 1008 672 l 1008 672 q 1006 676 1008 675 q 1002 678 1004 678 l 752 678 q 739 677 746 678 q 672 649 701 673 q 629 587 643 624 l 504 226 l 378 587 q 336 648 365 624 q 269 677 307 673 q 255 678 262 678 l 5 678 q 2 676 3 678 q 0 672 0 675 l 0 6 q 2 2 0 3 q 5 0 3 0 l 130 0 q 134 2 132 0 q 136 6 136 3 l 136 562 l 210 562 q 265 523 247 562 l 448 4 q 453 0 450 0 l 554 0 q 559 4 558 0 l 743 523 q 798 562 760 562 l 872 562 l 872 6 q 874 2 872 3 q 878 0 876 0 l 1002 0 q 1006 2 1004 0 q 1008 6 1008 3 l 1008 672 z "},"N":{"ha":1172,"x_min":0,"x_max":968,"o":"m 833 672 l 833 672 q 834 676 833 675 q 839 678 836 678 l 963 678 q 967 676 965 678 q 968 672 968 675 l 968 5 q 967 2 968 3 q 963 0 965 0 l 711 0 l 709 0 q 587 66 631 2 l 271 536 q 222 562 252 562 l 136 562 l 136 5 q 134 2 136 3 q 130 0 132 0 l 5 0 q 2 2 3 0 q 0 5 0 3 l 0 672 q 2 676 0 675 q 5 678 3 678 l 258 678 l 259 678 q 382 612 337 675 l 697 142 q 746 116 716 116 l 833 116 l 833 672 z "},"O":{"ha":1173,"x_min":0,"x_max":969,"o":"m 775 678 l 775 678 q 912 622 856 678 q 969 484 969 565 l 969 194 q 912 57 969 113 q 775 0 856 0 l 194 0 q 57 57 114 0 q 0 194 0 113 l 0 484 q 57 622 0 565 q 194 678 114 678 l 775 678 m 833 504 l 833 504 q 817 545 833 528 q 775 562 800 562 l 194 562 q 153 545 170 562 q 136 504 136 528 l 136 174 q 153 133 136 151 q 194 116 170 116 l 775 116 q 817 133 800 116 q 833 174 833 151 l 833 504 z "},"P":{"ha":1172,"x_min":0,"x_max":968,"o":"m 0 673 l 0 673 q 2 676 0 675 q 5 678 3 678 l 775 678 q 912 622 855 678 q 968 485 968 565 l 968 417 q 912 280 968 336 q 775 223 855 223 l 136 223 l 136 6 q 134 2 136 3 q 130 0 132 0 l 5 0 q 2 2 3 0 q 0 6 0 3 l 0 673 m 775 339 l 775 339 q 816 356 799 339 q 833 397 833 374 l 833 504 q 816 545 833 528 q 775 562 799 562 l 136 562 l 136 339 l 775 339 z "},"Q":{"ha":1172,"x_min":0,"x_max":968,"o":"m 968 194 l 968 194 q 944 100 968 142 q 880 31 920 57 l 882 24 l 883 24 q 884 22 883 23 q 886 17 885 20 l 964 -146 q 964 -152 966 -149 q 959 -155 962 -155 l 822 -155 q 817 -151 819 -155 l 755 -22 q 720 0 744 -1 l 194 0 q 57 57 113 0 q 0 194 0 114 l 0 484 q 57 622 0 565 q 194 678 113 678 l 774 678 q 912 622 855 678 q 968 484 968 565 l 968 194 m 194 117 l 194 117 l 774 117 q 816 134 799 117 q 833 174 833 151 l 833 504 q 816 545 833 528 q 774 562 799 562 l 194 562 q 153 545 170 562 q 136 504 136 528 l 136 174 q 153 134 136 151 q 194 117 170 117 z "},"R":{"ha":1172,"x_min":0,"x_max":968,"o":"m 968 416 l 968 416 q 937 310 968 357 q 854 240 906 263 l 857 235 l 965 8 q 964 3 966 5 q 960 0 963 0 l 822 0 q 817 3 819 0 l 712 222 l 136 222 l 136 5 q 134 2 136 3 q 130 0 132 0 l 5 0 q 2 2 3 0 q 0 5 0 3 l 0 672 q 2 676 0 675 q 5 678 3 678 l 775 678 q 912 622 855 678 q 968 484 968 565 l 968 416 m 136 339 l 136 339 l 775 339 q 816 356 799 339 q 833 397 833 373 l 833 504 q 816 545 833 528 q 775 562 799 562 l 136 562 l 136 339 z "},"S":{"ha":1172,"x_min":0,"x_max":968,"o":"m 136 504 l 136 504 q 153 545 136 528 q 193 562 170 562 l 924 562 q 928 564 926 562 q 930 568 930 566 l 930 673 q 928 676 930 675 q 924 678 926 678 l 193 678 q 57 622 113 678 q 0 485 0 565 l 0 475 q 57 338 0 395 q 193 281 113 281 l 775 281 q 816 264 799 281 q 833 223 833 247 l 833 174 q 816 134 833 151 q 775 117 799 117 l 44 117 q 40 115 42 117 q 39 111 39 113 l 39 6 q 40 2 39 3 q 44 0 42 0 l 775 0 q 912 57 855 0 q 968 194 968 114 l 968 203 q 912 341 968 284 q 775 397 855 397 l 193 397 q 153 414 170 397 q 136 456 136 431 l 136 504 z "},"T":{"ha":1172,"x_min":0,"x_max":968,"o":"m 0 672 l 0 672 q 2 676 0 675 q 5 678 3 678 l 963 678 q 967 676 965 678 q 968 672 968 675 l 968 568 q 967 564 968 566 q 963 562 965 562 l 552 562 l 552 6 q 550 2 552 3 q 547 0 549 0 l 422 0 q 418 2 420 0 q 416 6 416 3 l 416 562 l 5 562 q 2 564 3 562 q 0 568 0 566 l 0 672 z "},"U":{"ha":1173,"x_min":0,"x_max":969,"o":"m 969 672 l 969 672 q 967 676 969 675 q 963 678 966 678 l 840 678 q 835 676 837 678 q 833 672 833 675 l 833 174 q 817 133 833 150 q 775 116 800 116 l 194 116 q 153 133 170 116 q 136 174 136 150 l 136 672 q 134 676 136 675 q 130 678 132 678 l 6 678 q 2 676 3 678 q 0 672 0 675 l 0 193 q 57 57 0 113 q 194 0 114 0 l 775 0 q 912 57 856 0 q 969 193 969 113 l 969 672 z "},"V":{"ha":1223,"x_min":0,"x_max":1019,"o":"m 399 51 l 399 51 q 276 0 346 0 l 5 0 q 2 2 3 0 q 0 5 0 3 l 0 672 q 2 676 0 675 q 5 678 3 678 l 130 678 q 134 676 132 678 q 136 672 136 675 l 136 116 l 248 116 q 289 133 271 116 l 836 676 q 840 678 838 678 l 1013 678 q 1018 675 1017 678 q 1017 668 1019 671 l 399 51 z "},"W":{"ha":1211,"x_min":0,"x_max":1008,"o":"m 1008 673 l 1008 673 q 1006 676 1008 675 q 1002 678 1004 678 l 878 678 q 874 676 876 678 q 872 673 872 675 l 872 117 l 753 117 q 703 146 722 117 l 572 376 l 572 673 q 570 676 572 675 q 566 678 568 678 l 442 678 q 438 676 439 678 q 436 673 436 675 l 436 376 l 304 146 q 254 117 286 117 l 136 117 l 136 673 q 134 676 136 675 q 130 678 132 678 l 6 678 q 2 676 3 678 q 0 673 0 675 l 0 6 q 2 2 0 3 q 6 0 3 0 l 277 0 q 364 23 323 0 q 428 88 404 47 l 504 221 l 580 88 q 644 23 604 47 q 731 0 684 0 l 1002 0 q 1006 2 1004 0 q 1008 6 1008 3 l 1008 673 z "},"X":{"ha":1172,"x_min":0,"x_max":968,"o":"m 774 562 l 774 562 q 728 541 747 562 l 565 339 l 728 138 q 774 117 747 117 l 963 117 q 967 115 965 117 q 968 111 968 113 l 968 6 q 967 2 968 3 q 963 0 965 0 l 762 0 q 627 64 684 0 l 484 240 l 342 64 q 206 0 285 0 l 5 0 q 2 2 3 0 q 0 6 0 3 l 0 111 q 2 115 0 113 q 5 117 3 117 l 195 117 q 240 138 221 117 l 404 339 l 240 541 q 195 562 221 562 l 5 562 q 2 564 3 562 q 0 568 0 566 l 0 673 q 2 676 0 675 q 5 678 3 678 l 206 678 q 342 614 285 678 l 484 438 l 627 614 q 762 678 684 678 l 963 678 q 967 676 965 678 q 968 673 968 675 l 968 568 q 967 564 968 566 q 963 562 965 562 l 774 562 z "},"Y":{"ha":1188,"x_min":0,"x_max":985,"o":"m 985 673 l 985 673 q 983 676 985 675 q 979 678 981 678 l 854 678 q 851 676 852 678 q 849 673 849 675 l 849 368 l 332 368 q 279 401 298 368 l 149 675 q 144 678 147 678 l 6 678 q 2 676 3 678 q 1 670 0 673 l 162 332 q 227 259 184 286 q 319 233 269 233 l 849 233 l 849 6 q 851 2 849 3 q 854 0 852 0 l 979 0 q 983 2 981 0 q 985 6 985 3 l 985 673 z "},"Z":{"ha":1153,"x_min":0,"x_max":949,"o":"m 949 673 l 949 673 q 948 676 949 675 q 943 678 946 678 l 25 678 q 21 676 23 678 q 20 673 20 675 l 20 568 q 21 564 20 566 q 25 562 23 562 l 814 562 l 814 524 q 801 487 814 503 q 768 467 788 471 l 138 332 q 38 270 77 317 q 0 161 0 222 l 0 6 q 2 2 0 3 q 6 0 3 0 l 924 0 q 928 2 926 0 q 930 6 930 3 l 930 111 q 928 115 930 113 q 924 117 926 117 l 136 117 l 136 155 q 149 191 136 176 q 182 212 161 207 l 812 347 q 911 408 873 361 q 949 517 949 456 l 949 673 z "},"[":{"ha":455,"x_min":0,"x_max":252,"o":"m 136 1 l 136 1 l 136 677 l 246 677 q 250 679 248 677 q 252 684 252 681 l 252 788 q 250 792 252 790 q 246 793 248 793 l 6 793 q 2 792 3 793 q 0 788 0 790 l 0 -109 q 2 -114 0 -112 q 6 -115 3 -115 l 246 -115 q 250 -114 248 -115 q 252 -109 252 -112 l 252 -5 q 250 -1 252 -3 q 246 1 248 1 l 136 1 z "},"\\":{"ha":625,"x_min":0,"x_max":422,"o":"m 1 670 l 287 3 q 292 0 289 0 l 415 0 q 420 3 418 0 q 420 8 422 5 l 135 675 q 130 678 133 678 l 6 678 q 2 676 3 678 q 1 670 0 673 l 1 670 z "},"]":{"ha":455,"x_min":0,"x_max":252,"o":"m 117 1 l 6 1 q 2 -1 3 1 q 0 -5 0 -3 l 0 -109 q 2 -114 0 -112 q 6 -115 3 -115 l 246 -115 q 250 -114 248 -115 q 252 -109 252 -112 l 252 788 q 250 792 252 790 q 246 793 248 793 l 6 793 q 2 792 3 793 q 0 788 0 790 l 0 684 q 2 679 0 681 q 6 677 3 677 l 117 677 l 117 1 l 117 1 z "},"^":{"ha":663,"x_min":0,"x_max":460,"o":"m 458 338 l 458 338 q 458 332 460 335 q 453 330 456 330 l 350 330 q 345 333 347 330 l 230 562 l 115 333 q 110 330 113 330 l 7 330 q 2 332 3 330 q 1 338 0 335 l 170 675 q 176 678 172 678 l 284 678 q 290 675 288 678 l 458 338 z "},"_":{"ha":1172,"x_min":0,"x_max":968,"o":"m 964 -184 l 964 -184 q 967 -182 966 -184 q 968 -178 968 -180 l 968 -73 q 967 -70 968 -71 q 964 -68 966 -68 l 4 -68 q 1 -70 2 -68 q 0 -73 0 -71 l 0 -178 q 1 -182 0 -180 q 4 -184 2 -184 l 964 -184 z "},"`":{"ha":578,"x_min":0,"x_max":375,"o":"m 188 1015 l 188 1015 q 184 1017 186 1017 l 7 1017 q 1 1014 3 1017 q 3 1007 0 1010 l 243 767 q 247 765 245 765 l 368 765 q 374 768 372 765 q 373 774 375 771 l 188 1015 z "},"a":{"ha":1173,"x_min":0,"x_max":969,"o":"m 0 485 l 0 485 q 57 622 0 565 q 194 678 113 678 l 775 678 q 912 622 855 678 q 969 485 969 565 l 969 6 q 967 2 969 3 q 963 0 966 0 l 839 0 q 835 2 837 0 q 833 6 833 3 l 833 223 l 136 223 l 136 6 q 134 2 136 3 q 130 0 132 0 l 6 0 q 2 2 3 0 q 0 6 0 3 l 0 485 m 833 339 l 833 339 l 833 504 q 816 545 833 528 q 775 562 799 562 l 194 562 q 153 545 170 562 q 136 504 136 528 l 136 339 l 833 339 z "},"b":{"ha":1173,"x_min":0,"x_max":969,"o":"m 969 484 l 969 484 l 969 475 q 913 339 969 395 q 969 203 969 283 l 969 193 q 912 57 969 113 q 775 0 855 0 l 6 0 q 2 2 3 0 q 0 5 0 3 l 0 672 q 2 676 0 675 q 6 678 3 678 l 775 678 q 912 621 855 678 q 969 484 969 564 m 136 562 l 136 562 l 136 397 l 775 397 q 816 414 799 397 q 833 455 833 431 l 833 504 q 816 545 833 528 q 775 562 799 562 l 136 562 m 833 174 l 833 174 l 833 222 q 816 264 833 247 q 775 281 799 281 l 136 281 l 136 116 l 775 116 q 816 133 799 116 q 833 174 833 150 z "},"c":{"ha":1173,"x_min":0,"x_max":969,"o":"m 194 116 l 194 116 q 153 133 170 116 q 136 174 136 151 l 136 504 q 153 545 136 528 q 194 562 170 562 l 963 562 q 967 564 966 562 q 969 568 969 566 l 969 672 q 967 676 969 675 q 963 678 966 678 l 194 678 q 57 622 113 678 q 0 484 0 565 l 0 194 q 57 57 0 113 q 194 0 113 0 l 963 0 q 967 2 966 0 q 969 6 969 3 l 969 111 q 967 114 969 113 q 963 116 966 116 l 194 116 z "},"d":{"ha":1172,"x_min":0,"x_max":968,"o":"m 774 678 l 774 678 q 912 622 855 678 q 968 484 968 565 l 968 194 q 912 57 968 113 q 774 0 855 0 l 5 0 q 2 2 3 0 q 0 6 0 3 l 0 672 q 2 676 0 675 q 5 678 3 678 l 774 678 m 833 504 l 833 504 q 816 545 833 528 q 774 562 799 562 l 136 562 l 136 116 l 774 116 q 816 133 799 116 q 833 174 833 151 l 833 504 z "},"e":{"ha":1173,"x_min":0,"x_max":969,"o":"m 136 504 l 136 504 q 153 545 136 528 q 194 562 170 562 l 963 562 q 967 564 966 562 q 969 568 969 566 l 969 672 q 967 676 969 675 q 963 678 966 678 l 194 678 q 57 622 113 678 q 0 484 0 565 l 0 194 q 57 57 0 113 q 194 0 113 0 l 963 0 q 967 2 966 0 q 969 6 969 3 l 969 111 q 967 114 969 113 q 963 116 966 116 l 194 116 q 153 133 170 116 q 136 174 136 151 l 136 281 l 866 281 q 870 282 869 281 q 872 287 872 284 l 872 391 q 870 396 872 394 q 866 397 869 397 l 136 397 l 136 504 z "},"f":{"ha":1173,"x_min":0,"x_max":969,"o":"m 136 504 l 136 504 q 153 545 136 528 q 194 562 170 562 l 963 562 q 967 564 966 562 q 969 568 969 566 l 969 672 q 967 676 969 675 q 963 678 966 678 l 175 678 q 51 627 102 678 q 0 504 0 576 l 0 6 q 2 2 0 3 q 6 0 3 0 l 130 0 q 134 2 132 0 q 136 6 136 3 l 136 223 l 867 223 q 870 225 869 223 q 872 229 872 227 l 872 333 q 870 337 872 336 q 867 339 869 339 l 136 339 l 136 504 z "},"g":{"ha":1173,"x_min":0,"x_max":969,"o":"m 194 116 l 194 116 q 153 133 170 116 q 136 174 136 151 l 136 504 q 153 545 136 528 q 194 562 170 562 l 963 562 q 967 564 966 562 q 969 568 969 566 l 969 672 q 967 676 969 675 q 963 678 966 678 l 194 678 q 57 622 113 678 q 0 484 0 565 l 0 194 q 57 57 0 113 q 194 0 113 0 l 794 0 q 918 51 867 0 q 969 174 969 102 l 969 333 q 967 337 969 336 q 963 339 966 339 l 839 339 q 835 337 837 339 q 833 333 833 336 l 833 174 q 816 133 833 151 q 775 116 799 116 l 194 116 z "},"h":{"ha":1173,"x_min":0,"x_max":969,"o":"m 969 672 l 969 672 q 967 676 969 675 q 963 678 966 678 l 840 678 q 835 676 837 678 q 833 672 833 675 l 833 397 l 136 397 l 136 672 q 134 676 136 675 q 130 678 132 678 l 6 678 q 2 676 3 678 q 0 672 0 675 l 0 5 q 2 2 0 3 q 6 0 3 0 l 130 0 q 134 2 132 0 q 136 5 136 3 l 136 281 l 833 281 l 833 5 q 835 2 833 3 q 840 0 837 0 l 963 0 q 967 2 966 0 q 969 5 969 3 l 969 672 z "},"i":{"ha":339,"x_min":0,"x_max":136,"o":"m 136 672 l 136 672 q 134 676 136 675 q 130 678 132 678 l 5 678 q 2 676 3 678 q 0 672 0 675 l 0 5 q 2 2 0 3 q 5 0 3 0 l 130 0 q 134 2 132 0 q 136 5 136 3 l 136 672 z "},"j":{"ha":1173,"x_min":0,"x_max":969,"o":"m 969 672 l 969 672 q 967 676 969 675 q 963 678 966 678 l 840 678 q 835 676 837 678 q 833 672 833 675 l 833 174 q 817 133 833 150 q 775 116 800 116 l 194 116 q 153 133 170 116 q 136 174 136 150 l 136 401 q 134 405 136 404 q 130 407 132 407 l 6 407 q 2 405 3 407 q 0 401 0 404 l 0 193 q 57 57 0 113 q 194 0 114 0 l 775 0 q 912 57 856 0 q 969 193 969 113 l 969 672 z "},"k":{"ha":1189,"x_min":0,"x_max":985,"o":"m 867 255 l 867 255 q 810 330 846 298 q 867 404 846 360 l 984 650 q 984 656 985 654 q 979 659 982 659 l 842 659 q 836 655 838 659 l 735 443 q 699 402 722 417 q 648 387 675 387 l 136 387 l 136 672 q 134 676 136 675 q 130 678 132 678 l 6 678 q 2 676 3 678 q 0 672 0 675 l 0 6 q 2 2 0 3 q 6 0 3 0 l 130 0 q 134 2 132 0 q 136 6 136 3 l 136 271 l 648 271 q 699 256 675 271 q 735 216 722 241 l 836 3 q 842 0 838 0 l 979 0 q 984 3 982 0 q 984 8 985 5 l 867 255 z "},"l":{"ha":1172,"x_min":0,"x_max":968,"o":"m 968 111 l 968 111 q 967 114 968 113 q 963 116 965 116 l 194 116 q 153 133 170 116 q 136 174 136 151 l 136 672 q 134 676 136 675 q 130 678 132 678 l 5 678 q 2 676 3 678 q 0 672 0 675 l 0 194 q 57 57 0 113 q 194 0 113 0 l 963 0 q 967 2 965 0 q 968 5 968 3 l 968 111 z "},"m":{"ha":1211,"x_min":0,"x_max":1008,"o":"m 814 678 l 814 678 q 951 621 895 678 q 1008 484 1008 564 l 1008 5 q 1006 2 1008 3 q 1002 0 1004 0 l 878 0 q 874 2 876 0 q 872 5 872 3 l 872 504 q 855 545 872 528 q 814 562 838 562 l 572 562 l 572 5 q 570 2 572 3 q 566 0 568 0 l 442 0 q 438 2 439 0 q 436 5 436 3 l 436 562 l 194 562 q 153 545 170 562 q 136 504 136 528 l 136 5 q 134 2 136 3 q 130 0 132 0 l 6 0 q 2 2 3 0 q 0 5 0 3 l 0 484 q 57 621 0 564 q 194 678 114 678 l 814 678 z "},"n":{"ha":1173,"x_min":0,"x_max":969,"o":"m 0 5 l 0 5 q 2 2 0 3 q 6 0 3 0 l 130 0 q 134 2 132 0 q 136 5 136 3 l 136 503 q 153 545 136 528 q 194 562 170 562 l 775 562 q 817 545 800 562 q 833 503 833 528 l 833 5 q 835 2 833 3 q 840 0 837 0 l 963 0 q 967 2 966 0 q 969 5 969 3 l 969 484 q 912 621 969 564 q 775 678 856 678 l 194 678 q 57 621 114 678 q 0 484 0 564 l 0 5 z "},"o":{"ha":1173,"x_min":0,"x_max":969,"o":"m 775 678 l 775 678 q 912 622 856 678 q 969 484 969 565 l 969 194 q 912 57 969 113 q 775 0 856 0 l 194 0 q 57 57 114 0 q 0 194 0 113 l 0 484 q 57 622 0 565 q 194 678 114 678 l 775 678 m 833 504 l 833 504 q 817 545 833 528 q 775 562 800 562 l 194 562 q 153 545 170 562 q 136 504 136 528 l 136 174 q 153 133 136 151 q 194 116 170 116 l 775 116 q 817 133 800 116 q 833 174 833 151 l 833 504 z "},"p":{"ha":1172,"x_min":0,"x_max":968,"o":"m 0 673 l 0 673 q 2 676 0 675 q 5 678 3 678 l 775 678 q 912 622 855 678 q 968 485 968 565 l 968 417 q 912 280 968 336 q 775 223 855 223 l 136 223 l 136 6 q 134 2 136 3 q 130 0 132 0 l 5 0 q 2 2 3 0 q 0 6 0 3 l 0 673 m 775 339 l 775 339 q 816 356 799 339 q 833 397 833 374 l 833 504 q 816 545 833 528 q 775 562 799 562 l 136 562 l 136 339 l 775 339 z "},"q":{"ha":1172,"x_min":0,"x_max":968,"o":"m 968 194 l 968 194 q 944 100 968 142 q 880 31 920 57 l 882 24 l 883 24 q 884 22 883 23 q 886 17 885 20 l 964 -146 q 964 -152 966 -149 q 959 -155 962 -155 l 822 -155 q 817 -151 819 -155 l 755 -22 q 720 0 744 -1 l 194 0 q 57 57 113 0 q 0 194 0 114 l 0 484 q 57 622 0 565 q 194 678 113 678 l 774 678 q 912 622 855 678 q 968 484 968 565 l 968 194 m 194 117 l 194 117 l 774 117 q 816 134 799 117 q 833 174 833 151 l 833 504 q 816 545 833 528 q 774 562 799 562 l 194 562 q 153 545 170 562 q 136 504 136 528 l 136 174 q 153 134 136 151 q 194 117 170 117 z "},"r":{"ha":1172,"x_min":0,"x_max":968,"o":"m 968 416 l 968 416 q 937 310 968 357 q 854 240 906 263 l 857 235 l 965 8 q 964 3 966 5 q 960 0 963 0 l 822 0 q 817 3 819 0 l 712 222 l 136 222 l 136 5 q 134 2 136 3 q 130 0 132 0 l 5 0 q 2 2 3 0 q 0 5 0 3 l 0 672 q 2 676 0 675 q 5 678 3 678 l 775 678 q 912 622 855 678 q 968 484 968 565 l 968 416 m 136 339 l 136 339 l 775 339 q 816 356 799 339 q 833 397 833 373 l 833 504 q 816 545 833 528 q 775 562 799 562 l 136 562 l 136 339 z "},"s":{"ha":1172,"x_min":0,"x_max":968,"o":"m 136 504 l 136 504 q 153 545 136 528 q 193 562 170 562 l 924 562 q 928 564 926 562 q 930 568 930 566 l 930 673 q 928 676 930 675 q 924 678 926 678 l 193 678 q 57 622 113 678 q 0 485 0 565 l 0 475 q 57 338 0 395 q 193 281 113 281 l 775 281 q 816 264 799 281 q 833 223 833 247 l 833 174 q 816 134 833 151 q 775 117 799 117 l 44 117 q 40 115 42 117 q 39 111 39 113 l 39 6 q 40 2 39 3 q 44 0 42 0 l 775 0 q 912 57 855 0 q 968 194 968 114 l 968 203 q 912 341 968 284 q 775 397 855 397 l 193 397 q 153 414 170 397 q 136 456 136 431 l 136 504 z "},"t":{"ha":1172,"x_min":0,"x_max":968,"o":"m 0 672 l 0 672 q 2 676 0 675 q 5 678 3 678 l 963 678 q 967 676 965 678 q 968 672 968 675 l 968 568 q 967 564 968 566 q 963 562 965 562 l 552 562 l 552 6 q 550 2 552 3 q 547 0 549 0 l 422 0 q 418 2 420 0 q 416 6 416 3 l 416 562 l 5 562 q 2 564 3 562 q 0 568 0 566 l 0 672 z "},"u":{"ha":1173,"x_min":0,"x_max":969,"o":"m 969 672 l 969 672 q 967 676 969 675 q 963 678 966 678 l 840 678 q 835 676 837 678 q 833 672 833 675 l 833 174 q 817 133 833 150 q 775 116 800 116 l 194 116 q 153 133 170 116 q 136 174 136 150 l 136 672 q 134 676 136 675 q 130 678 132 678 l 6 678 q 2 676 3 678 q 0 672 0 675 l 0 193 q 57 57 0 113 q 194 0 114 0 l 775 0 q 912 57 856 0 q 969 193 969 113 l 969 672 z "},"v":{"ha":1174,"x_min":0,"x_max":970,"o":"m 834 672 l 834 672 q 836 676 834 674 q 840 678 838 678 l 964 678 q 969 676 967 678 q 970 672 970 674 l 970 355 q 906 240 970 285 l 547 17 q 424 17 485 -18 l 64 240 q 0 355 0 285 l 0 672 q 2 676 0 674 q 5 678 3 678 l 130 678 q 134 676 132 678 q 136 672 136 674 l 136 388 q 163 338 136 357 l 465 151 q 505 151 485 140 l 807 338 q 834 388 834 357 l 834 672 z "},"w":{"ha":1211,"x_min":0,"x_max":1008,"o":"m 194 0 l 194 0 q 57 57 113 0 q 0 194 0 114 l 0 673 q 2 676 0 675 q 5 678 3 678 l 130 678 q 134 676 132 678 q 136 673 136 675 l 136 175 q 153 134 136 151 q 194 117 170 117 l 436 117 l 436 673 q 438 676 436 675 q 441 678 439 678 l 566 678 q 570 676 568 678 q 572 673 572 675 l 572 117 l 814 117 q 855 134 838 117 q 872 175 872 151 l 872 673 q 874 676 872 675 q 878 678 876 678 l 1002 678 q 1006 676 1004 678 q 1008 673 1008 675 l 1008 194 q 951 57 1008 114 q 814 0 894 0 l 194 0 z "},"x":{"ha":1172,"x_min":0,"x_max":968,"o":"m 774 562 l 774 562 q 728 541 747 562 l 565 339 l 728 138 q 774 117 747 117 l 963 117 q 967 115 965 117 q 968 111 968 113 l 968 6 q 967 2 968 3 q 963 0 965 0 l 762 0 q 627 64 684 0 l 484 240 l 342 64 q 206 0 285 0 l 5 0 q 2 2 3 0 q 0 6 0 3 l 0 111 q 2 115 0 113 q 5 117 3 117 l 195 117 q 240 138 221 117 l 404 339 l 240 541 q 195 562 221 562 l 5 562 q 2 564 3 562 q 0 568 0 566 l 0 673 q 2 676 0 675 q 5 678 3 678 l 206 678 q 342 614 285 678 l 484 438 l 627 614 q 762 678 684 678 l 963 678 q 967 676 965 678 q 968 673 968 675 l 968 568 q 967 564 968 566 q 963 562 965 562 l 774 562 z "},"y":{"ha":1211,"x_min":0,"x_max":1008,"o":"m 872 673 l 872 673 q 874 676 872 675 q 878 678 876 678 l 1002 678 q 1006 676 1004 678 q 1008 673 1008 675 l 1008 483 q 985 408 1008 441 q 925 358 963 374 l 572 208 l 572 6 q 570 2 572 3 q 566 0 568 0 l 442 0 q 438 2 439 0 q 436 6 436 3 l 436 208 l 83 358 q 22 408 45 374 q 0 483 0 442 l 0 673 q 2 676 0 675 q 6 678 3 678 l 130 678 q 134 676 132 678 q 136 673 136 675 l 136 509 q 172 456 136 474 l 504 316 l 837 456 q 872 509 872 474 l 872 673 z "},"z":{"ha":1153,"x_min":0,"x_max":949,"o":"m 949 673 l 949 673 q 948 676 949 675 q 943 678 946 678 l 25 678 q 21 676 23 678 q 20 673 20 675 l 20 568 q 21 564 20 566 q 25 562 23 562 l 814 562 l 814 524 q 801 487 814 503 q 768 467 788 471 l 138 332 q 38 270 77 317 q 0 161 0 222 l 0 6 q 2 2 0 3 q 6 0 3 0 l 924 0 q 928 2 926 0 q 930 6 930 3 l 930 111 q 928 115 930 113 q 924 117 926 117 l 136 117 l 136 155 q 149 191 136 176 q 182 212 161 207 l 812 347 q 911 408 873 361 q 949 517 949 456 l 949 673 z "},"{":{"ha":571,"x_min":0,"x_max":368,"o":"m 252 619 l 252 619 l 252 455 q 207 339 252 388 q 252 223 252 290 l 252 59 q 269 18 252 35 q 309 1 286 1 l 361 1 q 366 -1 364 1 q 368 -5 368 -3 l 368 -110 q 366 -114 368 -112 q 361 -115 364 -115 l 290 -115 q 167 -64 218 -115 q 116 59 116 -14 l 116 281 l 6 281 q 2 282 3 281 q 0 287 0 284 l 0 391 q 2 395 0 393 q 6 397 3 397 l 116 397 l 116 619 q 167 743 116 692 q 290 793 218 793 l 361 793 q 366 792 364 793 q 368 787 368 790 l 368 683 q 366 679 368 681 q 361 677 364 677 l 309 677 q 269 661 286 677 q 252 619 252 644 z "},"|":{"ha":338,"x_min":0,"x_max":135,"o":"m 135 815 l 135 815 q 133 819 135 817 q 129 821 132 821 l 6 821 q 2 819 3 821 q 0 815 0 817 l 0 -136 q 2 -141 0 -139 q 6 -142 3 -142 l 129 -142 q 133 -141 132 -142 q 135 -136 135 -139 l 135 815 z "},"}":{"ha":571,"x_min":0,"x_max":368,"o":"m 116 619 q 99 661 116 644 q 58 677 82 677 l 6 677 q 2 679 3 677 q 0 683 0 681 l 0 787 q 2 792 0 790 q 6 793 3 793 l 77 793 q 201 743 150 793 q 252 619 252 692 l 252 397 l 361 397 q 366 395 364 397 q 368 391 368 393 l 368 287 q 366 282 368 284 q 361 281 364 281 l 252 281 l 252 59 q 201 -64 252 -14 q 77 -115 150 -115 l 6 -115 q 2 -114 3 -115 q 0 -110 0 -112 l 0 -5 q 2 -1 0 -3 q 6 1 3 1 l 58 1 q 99 18 82 1 q 116 59 116 35 l 116 223 q 161 339 116 290 q 116 455 116 388 l 116 619 l 116 619 z "},"~":{"ha":785,"x_min":0,"x_max":581,"o":"m 465 448 l 465 448 q 466 453 465 451 q 471 454 468 454 l 575 454 q 579 453 578 454 q 581 448 581 451 l 581 393 q 532 289 581 329 q 418 260 484 249 l 163 313 q 130 306 144 317 q 116 275 116 294 l 116 237 q 114 233 116 235 q 111 231 113 231 l 5 231 q 2 233 3 231 q 0 237 0 235 l 0 292 q 49 396 0 357 q 163 425 98 436 l 418 372 q 451 380 437 368 q 465 410 465 391 l 465 448 z "},"¡":{"ha":339,"x_min":0,"x_max":136,"o":"m 0 -333 l 0 -333 q 2 -337 0 -336 q 6 -339 3 -339 l 130 -339 q 134 -337 132 -339 q 136 -333 136 -336 l 136 121 q 134 124 136 123 q 130 126 132 126 l 6 126 q 2 124 3 126 q 0 121 0 123 l 0 -333 m 1 339 l 1 339 q 0 339 1 339 q 0 338 0 339 l 0 224 q 0 223 0 224 q 1 223 1 223 l 135 223 q 136 223 136 223 q 136 224 136 224 l 136 338 q 136 339 136 339 q 135 339 136 339 l 1 339 z "},"¢":{"ha":1171,"x_min":0,"x_max":967,"o":"m 967 450 l 967 450 q 965 446 967 448 q 961 444 964 444 l 838 444 q 833 446 835 444 q 831 450 831 448 l 831 503 q 814 543 831 526 q 774 560 798 560 l 551 560 l 551 115 l 774 115 q 814 133 798 115 q 831 174 831 150 l 831 226 q 833 230 831 228 q 838 232 835 232 l 961 232 q 965 230 964 232 q 967 226 967 228 l 967 174 q 916 51 967 102 q 793 -1 865 -1 l 551 -1 l 551 -111 q 550 -115 551 -113 q 545 -117 548 -117 l 422 -117 q 417 -115 419 -117 q 416 -111 416 -113 l 416 -1 l 188 -1 q 55 54 110 -1 q 0 187 0 109 l 0 489 q 55 621 0 566 q 188 676 110 676 l 416 676 l 416 787 q 417 790 416 789 q 422 792 419 792 l 545 792 q 550 790 548 792 q 551 787 551 789 l 551 676 l 793 676 q 916 625 865 676 q 967 503 967 574 l 967 450 m 416 115 l 416 115 l 416 560 l 188 560 q 151 545 166 560 q 136 508 136 530 l 136 168 q 151 131 136 146 q 188 115 166 115 l 416 115 z "},"£":{"ha":1173,"x_min":0,"x_max":969,"o":"m 330 562 l 330 562 q 288 545 305 562 q 271 504 271 528 l 271 397 l 576 397 q 579 395 578 397 q 581 391 581 393 l 581 287 q 579 282 581 284 q 576 281 578 281 l 271 281 l 271 116 l 963 116 q 967 114 966 116 q 969 111 969 113 l 969 5 q 967 2 969 3 q 963 0 966 0 l 6 0 q 2 2 3 0 q 0 5 0 3 l 0 111 q 2 114 0 113 q 6 116 3 116 l 77 116 q 119 133 102 116 q 136 174 136 150 l 136 281 l 6 281 q 2 282 3 281 q 0 287 0 284 l 0 391 q 2 395 0 393 q 6 397 3 397 l 136 397 l 136 504 q 187 627 136 576 q 310 678 238 678 l 866 678 q 870 676 869 678 q 872 672 872 675 l 872 568 q 870 563 872 565 q 866 562 869 562 l 330 562 z "},"¤":{"ha":697,"x_min":0,"x_max":494,"o":"m 441 344 l 441 344 q 418 254 441 295 l 494 179 l 412 97 l 336 172 q 247 150 296 150 q 157 172 199 150 l 83 97 l 0 179 l 75 254 q 53 344 53 295 q 75 433 53 392 l 0 508 l 83 590 l 157 515 q 247 537 199 537 q 336 515 296 537 l 412 590 l 494 508 l 419 433 q 441 344 441 392 m 260 248 l 260 248 q 315 275 293 253 q 342 330 338 298 q 344 344 344 336 q 342 357 344 351 q 315 412 338 389 q 260 439 293 434 q 247 440 254 440 q 233 439 240 440 q 178 412 201 434 q 151 357 156 389 q 150 344 150 351 q 151 330 150 336 q 178 275 156 298 q 233 248 201 253 q 247 247 240 247 q 260 248 254 247 z "},"¥":{"ha":1173,"x_min":0,"x_max":969,"o":"m 833 673 l 833 673 q 835 676 833 675 q 839 678 837 678 l 963 678 q 967 676 966 678 q 969 673 969 675 l 969 481 q 947 408 969 441 q 888 357 926 374 l 596 227 l 868 227 q 871 225 869 227 q 872 222 872 224 l 872 117 q 871 113 872 115 q 868 111 869 111 l 552 111 l 552 6 q 550 2 552 3 q 547 0 549 0 l 422 0 q 418 2 420 0 q 416 6 416 3 l 416 111 l 101 111 q 98 113 99 111 q 97 117 97 115 l 97 222 q 98 225 97 224 q 101 227 99 227 l 373 227 l 81 357 q 22 408 43 374 q 0 481 0 441 l 0 673 q 2 676 0 675 q 6 678 3 678 l 130 678 q 134 676 132 678 q 136 673 136 675 l 136 509 q 170 456 136 474 l 484 316 l 799 456 q 833 509 833 474 l 833 673 z "},"¦":{"ha":338,"x_min":0,"x_max":134,"o":"m 134 815 l 134 815 q 133 819 134 817 q 129 821 131 821 l 5 821 q 2 819 3 821 q 0 815 0 817 l 0 441 q 2 437 0 439 q 5 435 3 435 l 129 435 q 133 437 131 435 q 134 441 134 439 l 134 815 m 134 237 l 134 237 q 133 241 134 239 q 129 243 131 243 l 5 243 q 2 241 3 243 q 0 237 0 239 l 0 -136 q 2 -141 0 -139 q 5 -142 3 -142 l 129 -142 q 133 -141 131 -142 q 134 -136 134 -139 l 134 237 z "},"§":{"ha":1025,"x_min":0,"x_max":822,"o":"m 822 343 l 822 343 l 822 335 q 779 222 822 273 q 822 111 822 173 l 822 102 q 772 -18 822 32 q 651 -68 722 -68 l 38 -68 q 34 -66 35 -68 q 32 -62 32 -64 l 32 42 q 34 46 32 45 q 38 48 35 48 l 651 48 q 679 59 667 48 q 690 86 690 71 l 690 126 q 679 154 690 142 q 651 165 667 165 l 170 165 q 50 215 100 165 q 0 335 0 264 l 0 343 q 42 455 0 406 q 0 568 0 505 l 0 576 q 50 696 0 646 q 170 746 100 746 l 784 746 q 788 744 786 746 q 789 740 789 743 l 789 635 q 788 632 789 633 q 784 630 786 630 l 170 630 q 143 619 155 630 q 132 591 132 608 l 132 551 q 143 525 132 536 q 170 513 155 513 l 651 513 q 772 464 722 513 q 822 343 822 414 m 690 359 l 690 359 q 679 386 690 375 q 651 397 667 397 l 170 397 q 143 386 155 397 q 132 359 132 375 l 132 319 q 143 292 132 303 q 170 281 155 281 l 651 281 q 679 292 667 281 q 690 319 690 303 l 690 359 z "},"¨":{"ha":707,"x_min":0,"x_max":504,"o":"m 149 795 l 149 795 q 153 797 151 795 q 155 800 155 798 l 155 944 q 153 948 155 946 q 149 949 151 949 l 5 949 q 2 948 3 949 q 0 944 0 946 l 0 800 q 2 797 0 798 q 5 795 3 795 l 149 795 m 498 795 l 498 795 q 502 797 500 795 q 504 800 504 798 l 504 944 q 502 948 504 946 q 498 949 500 949 l 355 949 q 350 948 352 949 q 349 944 349 946 l 349 800 q 350 797 349 798 q 355 795 352 795 l 498 795 z "},"©":{"ha":1275,"x_min":0,"x_max":1072,"o":"m 853 463 l 853 463 q 851 458 853 460 q 848 456 850 456 l 401 456 q 359 439 376 456 q 341 397 341 422 l 341 281 q 359 240 341 257 q 401 222 376 222 l 848 222 q 851 221 850 222 q 853 216 853 219 l 853 117 q 851 113 853 115 q 848 111 850 111 l 397 111 q 271 163 323 111 q 218 290 218 216 l 218 389 q 271 515 218 463 q 397 568 323 568 l 848 568 q 851 566 850 568 q 853 562 853 564 l 853 463 m 0 568 l 0 568 q 52 694 0 642 q 178 746 104 746 l 893 746 q 1019 694 967 746 q 1072 568 1072 642 l 1072 111 q 1019 -15 1072 37 q 893 -68 967 -68 l 178 -68 q 52 -15 104 -68 q 0 111 0 37 l 0 568 m 893 32 l 893 32 q 935 49 918 32 q 953 92 953 66 l 953 587 q 935 630 953 612 q 893 647 918 647 l 178 647 q 136 630 154 647 q 119 587 119 612 l 119 92 q 136 49 119 66 q 178 32 154 32 l 893 32 z "},"ª":{"ha":824,"x_min":0,"x_max":621,"o":"m 124 233 l 124 233 l 614 233 q 619 234 617 233 q 621 239 621 236 l 621 554 q 584 642 621 606 q 496 678 547 678 l 29 678 q 25 676 27 678 q 24 673 24 675 l 24 576 q 25 571 24 573 q 29 570 27 570 l 485 570 q 495 565 491 570 q 500 554 500 561 l 500 512 l 124 512 q 36 475 73 512 q 0 388 0 439 l 0 357 q 36 269 0 305 q 124 233 73 233 m 136 404 l 136 404 l 500 404 l 500 341 l 136 341 q 125 346 130 341 q 120 357 120 351 l 120 388 q 125 399 120 394 q 136 404 130 404 z "},"«":{"ha":975,"x_min":0,"x_max":771,"o":"m 426 574 l 426 574 q 431 570 430 574 q 429 564 433 566 l 151 341 l 429 119 q 431 112 433 116 q 426 109 430 109 l 289 109 q 286 110 288 109 l 2 336 q 0 341 0 338 q 2 346 0 344 l 286 572 q 289 574 288 574 l 426 574 m 765 574 l 765 574 q 770 570 769 574 q 768 564 772 566 l 490 341 l 768 119 q 770 112 772 116 q 765 109 769 109 l 628 109 q 625 110 627 109 l 341 336 q 339 341 339 338 q 341 346 339 344 l 625 572 q 628 574 627 574 l 765 574 z "},"®":{"ha":1275,"x_min":0,"x_max":1072,"o":"m 785 270 l 785 270 l 857 119 q 856 113 858 116 q 851 111 854 111 l 728 111 q 723 114 725 111 l 659 248 l 337 248 l 337 117 q 335 112 337 114 q 331 111 334 111 l 220 111 q 216 112 218 111 q 214 117 214 114 l 214 562 q 216 565 214 564 q 220 567 218 567 l 710 567 q 808 526 768 567 q 849 428 849 486 l 849 387 q 785 270 849 315 m 726 374 l 726 374 l 726 440 q 722 451 726 447 q 710 456 717 456 l 337 456 l 337 359 l 710 359 q 722 363 717 359 q 726 374 726 368 m 0 567 l 0 567 q 52 693 0 641 q 178 746 104 746 l 893 746 q 1019 693 967 746 q 1072 567 1072 641 l 1072 111 q 1019 -16 1072 37 q 893 -68 967 -68 l 178 -68 q 52 -16 104 -68 q 0 111 0 37 l 0 567 m 893 31 l 893 31 q 935 49 918 31 q 952 91 952 66 l 952 587 q 935 629 952 612 q 893 646 918 646 l 178 646 q 136 629 154 646 q 119 587 119 612 l 119 91 q 136 49 119 66 q 178 31 154 31 l 893 31 z "},"¯":{"ha":882,"x_min":0,"x_max":678,"o":"m 674 678 l 674 678 q 677 680 675 678 q 678 684 678 682 l 678 789 q 677 792 678 791 q 674 794 675 794 l 4 794 q 1 792 2 794 q 0 789 0 791 l 0 684 q 1 680 0 682 q 4 678 2 678 l 674 678 z "},"°":{"ha":532,"x_min":0,"x_max":329,"o":"m 164 582 l 164 582 q 116 562 136 582 q 96 514 96 542 q 116 466 96 486 q 164 446 136 446 q 212 466 193 446 q 232 514 232 486 q 212 562 232 542 q 164 582 193 582 m 164 678 l 164 678 l 164 678 q 281 630 233 678 q 329 514 329 582 q 281 397 329 446 q 164 349 233 349 q 48 397 96 349 q 0 514 0 446 q 48 630 0 582 q 164 678 96 678 z "},"±":{"ha":688,"x_min":0,"x_max":485,"o":"m 480 494 l 480 494 q 483 492 481 494 q 484 488 484 490 l 484 383 q 483 379 484 380 q 480 377 481 377 l 310 377 l 310 197 q 308 195 310 196 q 304 193 307 193 l 180 193 q 176 195 178 193 q 174 197 174 196 l 174 377 l 4 377 q 1 379 2 377 q -1 383 -1 380 l -1 488 q 1 492 -1 490 q 4 494 2 494 l 174 494 l 174 673 q 176 676 174 675 q 180 677 178 677 l 304 677 q 308 676 307 677 q 310 673 310 675 l 310 494 l 480 494 m 481 0 l 481 0 q 484 2 482 0 q 485 5 485 3 l 485 111 q 484 114 485 113 q 481 116 482 116 l 5 116 q 1 114 3 116 q 0 111 0 113 l 0 5 q 1 2 0 3 q 5 0 3 0 l 481 0 z "},"²":{"ha":824,"x_min":0,"x_max":621,"o":"m 485 678 l 485 678 q 581 638 541 678 q 621 543 621 599 l 621 536 q 581 441 621 481 q 485 401 541 401 l 136 401 q 125 396 130 401 q 120 386 120 392 l 120 341 l 591 341 q 595 339 593 341 q 597 335 597 338 l 597 238 q 595 234 597 236 q 591 233 593 233 l 6 233 q 2 234 3 233 q 0 238 0 236 l 0 374 q 40 470 0 430 q 136 509 79 509 l 485 509 q 495 514 491 509 q 500 525 500 519 l 500 554 q 495 565 500 561 q 485 570 491 570 l 29 570 q 25 571 27 570 q 24 576 24 573 l 24 672 q 25 676 24 675 q 29 678 27 678 l 485 678 z "},"³":{"ha":824,"x_min":0,"x_max":621,"o":"m 621 543 l 621 543 l 621 536 q 593 455 621 492 q 621 374 621 418 l 621 368 q 581 272 621 312 q 485 233 541 233 l 6 233 q 2 234 3 233 q 0 238 0 236 l 0 335 q 2 339 0 338 q 6 341 3 341 l 485 341 q 495 346 491 341 q 500 357 500 350 l 500 385 q 495 396 500 392 q 485 401 491 401 l 64 401 q 60 402 62 401 q 58 407 58 404 l 58 504 q 60 508 58 506 q 64 509 62 509 l 485 509 q 495 514 491 509 q 500 525 500 519 l 500 554 q 495 565 500 561 q 485 570 491 570 l 6 570 q 2 571 3 570 q 0 576 0 573 l 0 672 q 2 676 0 675 q 6 678 3 678 l 485 678 q 581 638 541 678 q 621 543 621 599 z "},"´":{"ha":578,"x_min":0,"x_max":375,"o":"m 187 1015 l 2 774 q 2 768 0 771 q 7 765 3 765 l 128 765 q 132 767 130 765 l 372 1007 q 374 1014 375 1010 q 368 1017 372 1017 l 191 1017 q 187 1015 189 1017 l 187 1015 z "},"µ":{"ha":1076,"x_min":0,"x_max":872,"o":"m 736 673 l 736 673 q 738 676 736 675 q 743 678 740 678 l 866 678 q 870 676 869 678 q 872 673 872 675 l 872 427 q 804 262 872 330 q 640 194 736 194 l 233 194 q 136 215 181 194 l 136 6 q 134 2 136 3 q 130 0 132 0 l 6 0 q 2 2 3 0 q 0 6 0 3 l 0 673 q 2 676 0 675 q 6 678 3 678 l 130 678 q 134 676 132 678 q 136 673 136 675 l 136 407 q 164 338 136 367 q 233 310 193 310 l 640 310 q 708 338 680 310 q 736 407 736 367 l 736 673 z "},"¶":{"ha":882,"x_min":0,"x_max":678,"o":"m 446 673 l 446 673 q 444 676 446 675 q 440 678 442 678 l 194 678 q 57 622 114 678 q 0 484 0 565 l 0 416 q 57 280 0 336 q 194 223 114 223 l 330 223 l 330 6 q 331 2 330 3 q 336 0 333 0 l 440 0 q 444 2 442 0 q 446 6 446 3 l 446 673 m 562 673 l 562 673 q 564 676 562 675 q 568 678 566 678 l 673 678 q 676 676 675 678 q 678 673 678 675 l 678 6 q 676 2 678 3 q 673 0 675 0 l 568 0 q 564 2 566 0 q 562 6 562 3 l 562 673 z "},"¸":{"ha":533,"x_min":0,"x_max":330,"o":"m 242 -99 l 242 -99 q 304 -124 279 -99 q 330 -186 330 -150 l 330 -273 q 304 -335 330 -309 q 242 -361 279 -361 l 6 -361 q 2 -359 3 -361 q 0 -355 0 -357 l 0 -273 q 2 -270 0 -271 q 6 -268 3 -268 l 231 -268 l 231 -192 l 57 -192 q 53 -190 54 -192 q 52 -184 51 -187 l 115 -4 q 121 0 117 0 l 207 0 q 211 -3 210 0 q 212 -8 213 -5 l 176 -99 l 242 -99 z "},"¹":{"ha":405,"x_min":0,"x_max":201,"o":"m 5 570 l 5 570 q 2 571 3 570 q 0 576 0 573 l 0 672 q 2 676 0 675 q 5 678 3 678 l 195 678 q 200 676 198 678 q 201 672 201 675 l 201 238 q 200 234 201 236 q 195 233 198 233 l 87 233 q 83 234 85 233 q 81 238 81 236 l 81 570 l 5 570 z "},"º":{"ha":823,"x_min":0,"x_max":620,"o":"m 484 678 l 484 678 q 580 638 541 678 q 620 543 620 599 l 620 368 q 580 272 620 312 q 484 233 541 233 l 136 233 q 40 272 79 233 q 0 368 0 312 l 0 543 q 40 638 0 599 q 136 678 79 678 l 484 678 m 120 554 l 120 554 l 120 357 q 125 346 120 350 q 136 341 130 341 l 484 341 q 495 346 491 341 q 500 357 500 350 l 500 554 q 495 565 500 561 q 484 570 491 570 l 136 570 q 125 565 130 570 q 120 554 120 561 z "},"»":{"ha":972,"x_min":0,"x_max":768,"o":"m 7 574 l 144 574 q 147 572 146 574 l 431 346 q 433 341 433 344 q 431 336 433 338 l 147 110 q 144 109 146 109 l 7 109 q 2 112 3 109 q 3 119 1 116 l 281 341 l 3 564 q 2 570 1 566 q 7 574 3 574 l 7 574 m 343 574 l 479 574 q 483 572 481 574 l 766 346 q 768 341 768 344 q 766 336 768 338 l 483 110 q 479 109 481 109 l 343 109 q 338 112 339 109 q 339 119 336 116 l 617 341 l 339 564 q 338 570 336 566 q 343 574 339 574 l 343 574 z "},"¼":{"ha":1463,"x_min":0,"x_max":1259,"o":"m 1139 439 l 1139 439 q 1140 444 1139 442 q 1145 446 1142 446 l 1253 446 q 1257 444 1255 446 q 1259 439 1259 442 l 1259 5 q 1257 2 1259 3 q 1253 0 1255 0 l 1145 0 q 1140 2 1142 0 q 1139 5 1139 3 l 1139 134 l 771 134 q 677 172 716 134 q 639 266 639 211 l 639 439 q 641 444 639 442 q 645 446 642 446 l 753 446 q 757 444 755 446 q 759 439 759 442 l 759 254 q 763 245 759 249 q 771 242 766 242 l 1139 242 l 1139 439 m 6 570 l 6 570 q 2 571 3 570 q 0 575 0 573 l 0 672 q 2 676 0 675 q 6 678 3 678 l 196 678 q 200 676 198 678 q 201 672 201 675 l 201 238 q 200 234 201 236 q 196 233 198 233 l 87 233 q 83 234 85 233 q 81 238 81 236 l 81 570 l 6 570 m 677 669 l 677 669 q 677 675 679 672 q 672 678 675 678 l 550 678 q 545 675 547 678 l 163 9 q 164 3 162 5 q 169 0 165 0 l 291 0 q 296 3 294 0 l 677 669 z "},"½":{"ha":1463,"x_min":0,"x_max":1259,"o":"m 1124 446 l 1124 446 q 1219 406 1179 446 q 1259 310 1259 366 l 1259 304 q 1219 208 1259 248 q 1124 168 1179 168 l 774 168 q 764 164 768 168 q 759 153 759 159 l 759 109 l 1230 109 q 1234 107 1232 109 q 1236 102 1236 105 l 1236 5 q 1234 2 1236 3 q 1230 0 1232 0 l 645 0 q 641 2 642 0 q 639 5 639 3 l 639 141 q 679 237 639 197 q 774 277 718 277 l 1124 277 q 1134 281 1130 277 q 1139 292 1139 286 l 1139 321 q 1134 332 1139 328 q 1124 337 1130 337 l 668 337 q 664 339 666 337 q 663 342 663 340 l 663 439 q 664 444 663 442 q 668 446 666 446 l 1124 446 m 6 570 l 6 570 q 2 571 3 570 q 0 575 0 573 l 0 672 q 2 676 0 675 q 6 678 3 678 l 196 678 q 200 676 198 678 q 201 672 201 675 l 201 238 q 200 234 201 236 q 196 233 198 233 l 87 233 q 83 234 85 233 q 81 238 81 236 l 81 570 l 6 570 m 677 669 l 677 669 q 677 675 679 672 q 672 678 675 678 l 550 678 q 545 675 547 678 l 163 9 q 164 3 162 5 q 169 0 165 0 l 291 0 q 296 3 294 0 l 677 669 z "},"¾":{"ha":1862,"x_min":0,"x_max":1658,"o":"m 621 543 l 621 543 l 621 537 q 593 456 621 492 q 621 374 621 418 l 621 368 q 581 272 621 312 q 485 233 541 233 l 6 233 q 2 234 3 233 q 0 239 0 236 l 0 336 q 2 339 0 338 q 6 341 3 341 l 485 341 q 496 346 491 341 q 500 357 500 351 l 500 386 q 496 397 500 392 q 485 401 491 401 l 64 401 q 60 403 62 401 q 58 407 58 405 l 58 504 q 60 508 58 507 q 64 510 62 510 l 485 510 q 496 514 491 510 q 500 526 500 519 l 500 554 q 496 565 500 561 q 485 570 491 570 l 6 570 q 2 571 3 570 q 0 576 0 573 l 0 673 q 2 676 0 675 q 6 678 3 678 l 485 678 q 581 638 541 678 q 621 543 621 599 m 1538 440 l 1538 440 q 1540 444 1538 442 q 1544 446 1541 446 l 1653 446 q 1656 444 1655 446 q 1658 440 1658 442 l 1658 6 q 1656 2 1658 3 q 1653 0 1655 0 l 1544 0 q 1540 2 1541 0 q 1538 6 1538 3 l 1538 134 l 1171 134 q 1077 173 1116 134 q 1038 266 1038 212 l 1038 440 q 1040 444 1038 442 q 1044 446 1042 446 l 1153 446 q 1157 444 1155 446 q 1158 440 1158 442 l 1158 254 q 1162 246 1158 250 q 1171 242 1165 242 l 1538 242 l 1538 440 m 1076 669 l 1076 669 q 1076 675 1078 673 q 1072 678 1074 678 l 949 678 q 944 675 946 678 l 563 9 q 563 3 562 6 q 568 0 565 0 l 690 0 q 695 3 693 0 l 1076 669 z "},"¿":{"ha":1173,"x_min":0,"x_max":969,"o":"m 969 -333 l 969 -333 q 967 -337 969 -336 q 963 -339 966 -339 l 174 -339 q 51 -288 102 -339 q 0 -165 0 -237 l 0 -136 q 51 -12 0 -63 q 174 39 102 39 l 833 39 l 833 111 q 835 115 833 113 q 839 117 837 117 l 963 117 q 967 115 966 117 q 969 111 969 113 l 969 -71 q 967 -76 969 -74 q 963 -77 966 -77 l 194 -77 q 153 -94 170 -77 q 136 -136 136 -111 l 136 -165 q 153 -205 136 -189 q 194 -222 170 -222 l 963 -222 q 967 -224 966 -222 q 969 -229 969 -226 l 969 -333 m 833 229 l 833 229 q 835 225 833 227 q 839 223 837 223 l 963 223 q 967 225 966 223 q 969 229 969 227 l 969 334 q 967 337 969 336 q 963 339 966 339 l 839 339 q 835 337 837 339 q 833 334 833 336 l 833 229 z "},"À":{"ha":1223,"x_min":0,"x_max":1020,"o":"m 620 627 l 620 627 q 743 678 674 678 l 1014 678 q 1018 676 1017 678 q 1020 672 1020 675 l 1020 5 q 1018 2 1020 3 q 1014 0 1017 0 l 890 0 q 886 2 888 0 q 884 5 884 3 l 884 562 l 771 562 q 730 545 748 562 l 184 1 q 180 0 182 0 l 7 0 q 1 3 3 0 q 3 9 0 7 l 620 627 m 764 1015 l 764 1015 q 760 1018 762 1018 l 583 1018 q 577 1014 578 1018 q 578 1008 576 1010 l 819 768 q 823 766 821 766 l 944 766 q 949 769 948 766 q 949 775 951 772 l 764 1015 z "},"Á":{"ha":1223,"x_min":0,"x_max":1121,"o":"m 620 627 l 620 627 q 743 678 674 678 l 1014 678 q 1018 676 1017 678 q 1020 672 1020 675 l 1020 5 q 1018 2 1020 3 q 1014 0 1017 0 l 890 0 q 886 2 888 0 q 884 5 884 3 l 884 562 l 771 562 q 730 545 748 562 l 184 1 q 180 0 182 0 l 7 0 q 1 3 3 0 q 3 9 0 7 l 620 627 m 933 1015 l 748 775 q 748 769 746 772 q 753 766 749 766 l 874 766 q 878 768 876 766 l 1118 1008 q 1120 1014 1121 1010 q 1114 1018 1118 1018 l 937 1018 q 933 1015 935 1018 l 933 1015 z "},"Â":{"ha":1223,"x_min":0,"x_max":1020,"o":"m 620 627 l 620 627 q 743 678 674 678 l 1014 678 q 1018 676 1017 678 q 1020 672 1020 675 l 1020 5 q 1018 2 1020 3 q 1014 0 1017 0 l 890 0 q 886 2 888 0 q 884 5 884 3 l 884 562 l 771 562 q 730 545 748 562 l 184 1 q 180 0 182 0 l 7 0 q 1 3 3 0 q 3 9 0 7 l 620 627 m 1017 774 l 1017 774 q 1017 768 1019 771 q 1012 765 1015 765 l 909 765 q 905 767 907 765 l 771 926 l 637 767 q 633 765 635 765 l 530 765 q 525 768 527 765 q 526 774 524 771 l 692 1015 q 696 1017 694 1017 l 846 1017 q 850 1015 848 1017 l 1017 774 z "},"Ã":{"ha":1223,"x_min":0,"x_max":1020,"o":"m 620 627 l 620 627 q 743 678 674 678 l 1014 678 q 1018 676 1017 678 q 1020 672 1020 675 l 1020 5 q 1018 2 1020 3 q 1014 0 1017 0 l 890 0 q 886 2 888 0 q 884 5 884 3 l 884 562 l 771 562 q 730 545 748 562 l 184 1 q 180 0 182 0 l 7 0 q 1 3 3 0 q 3 9 0 7 l 620 627 m 920 945 l 920 945 q 922 948 920 947 q 926 950 924 950 l 1011 950 q 1016 948 1014 950 q 1017 944 1017 947 l 1017 927 q 968 823 1017 863 q 854 794 920 783 l 700 826 q 651 814 671 831 q 630 770 630 797 l 630 770 q 628 766 630 767 q 625 764 627 764 l 538 764 q 535 766 536 764 q 533 770 533 768 l 533 787 q 582 891 533 852 q 696 920 631 931 l 850 888 q 899 900 878 883 q 920 945 920 917 l 920 945 z "},"Ä":{"ha":1223,"x_min":0,"x_max":1020,"o":"m 620 627 l 620 627 q 743 678 674 678 l 1014 678 q 1018 676 1017 678 q 1020 672 1020 675 l 1020 5 q 1018 2 1020 3 q 1014 0 1017 0 l 890 0 q 886 2 888 0 q 884 5 884 3 l 884 562 l 771 562 q 730 545 748 562 l 184 1 q 180 0 182 0 l 7 0 q 1 3 3 0 q 3 9 0 7 l 620 627 m 663 794 l 663 794 q 666 796 665 794 q 668 800 668 798 l 668 943 q 666 947 668 945 q 663 949 665 949 l 519 949 q 515 947 517 949 q 513 943 513 945 l 513 800 q 515 796 513 798 q 519 794 517 794 l 663 794 m 1011 794 l 1011 794 q 1016 796 1014 794 q 1017 800 1017 798 l 1017 943 q 1016 947 1017 945 q 1011 949 1014 949 l 868 949 q 864 947 865 949 q 862 943 862 945 l 862 800 q 864 796 862 798 q 868 794 865 794 l 1011 794 z "},"Å":{"ha":1223,"x_min":0,"x_max":1020,"o":"m 620 627 l 620 627 q 743 678 674 678 l 1014 678 q 1018 676 1017 678 q 1020 672 1020 675 l 1020 5 q 1018 2 1020 3 q 1014 0 1017 0 l 890 0 q 886 2 888 0 q 884 5 884 3 l 884 562 l 771 562 q 730 545 748 562 l 184 1 q 180 0 182 0 l 7 0 q 1 3 3 0 q 3 9 0 7 l 620 627 m 871 817 l 871 817 q 824 798 844 817 q 804 749 804 778 q 824 702 804 722 q 871 682 844 682 q 919 702 899 682 q 939 749 939 722 q 919 798 939 778 q 871 817 899 817 m 871 895 l 871 895 l 871 895 q 974 852 932 895 q 1017 749 1017 810 q 974 647 1017 690 q 871 604 932 604 q 769 647 811 604 q 726 749 726 690 q 769 852 726 810 q 871 895 811 895 z "},"Æ":{"ha":1862,"x_min":0,"x_max":1659,"o":"m 1659 568 l 1659 568 q 1657 564 1659 566 q 1653 562 1655 562 l 1019 562 l 1019 397 l 1556 397 q 1560 396 1558 397 q 1562 391 1562 394 l 1562 287 q 1560 283 1562 285 q 1556 281 1558 281 l 1019 281 l 1019 174 q 1036 134 1019 151 q 1078 117 1053 117 l 1653 117 q 1657 115 1655 117 q 1659 111 1659 113 l 1659 6 q 1657 2 1659 3 q 1653 0 1655 0 l 1058 0 q 935 51 986 0 q 884 174 884 102 l 884 562 l 771 562 q 730 545 748 562 l 183 2 q 179 0 182 0 l 6 0 q 1 4 3 0 q 2 10 0 7 l 619 627 q 743 678 673 678 l 1653 678 q 1657 676 1655 678 q 1659 673 1659 675 l 1659 568 z "},"Ç":{"ha":1173,"x_min":0,"x_max":969,"o":"m 194 116 l 194 116 q 153 133 170 116 q 136 174 136 151 l 136 504 q 153 545 136 528 q 194 562 170 562 l 963 562 q 967 564 966 562 q 969 568 969 566 l 969 672 q 967 676 969 675 q 963 678 966 678 l 194 678 q 57 622 113 678 q 0 484 0 565 l 0 194 q 57 57 0 113 q 194 0 113 0 l 963 0 q 967 2 966 0 q 969 6 969 3 l 969 111 q 967 114 969 113 q 963 116 966 116 l 194 116 m 562 -99 l 562 -99 q 624 -124 598 -99 q 649 -186 649 -150 l 649 -273 q 624 -335 649 -309 q 562 -361 598 -361 l 326 -361 q 321 -359 323 -361 q 319 -355 319 -357 l 319 -273 q 321 -270 319 -271 q 326 -268 323 -268 l 550 -268 l 550 -192 l 376 -192 q 372 -190 374 -192 q 371 -184 370 -187 l 435 -4 q 440 0 436 0 l 526 0 q 531 -3 529 0 q 532 -8 532 -5 l 496 -99 l 562 -99 z "},"È":{"ha":1173,"x_min":0,"x_max":969,"o":"m 136 504 l 136 504 q 153 545 136 528 q 194 562 170 562 l 963 562 q 967 564 966 562 q 969 568 969 566 l 969 672 q 967 676 969 675 q 963 678 966 678 l 194 678 q 57 622 113 678 q 0 484 0 565 l 0 194 q 57 57 0 113 q 194 0 113 0 l 963 0 q 967 2 966 0 q 969 6 969 3 l 969 111 q 967 114 969 113 q 963 116 966 116 l 194 116 q 153 133 170 116 q 136 174 136 151 l 136 281 l 866 281 q 870 282 869 281 q 872 287 872 284 l 872 391 q 870 396 872 394 q 866 397 869 397 l 136 397 l 136 504 m 458 1015 l 458 1015 q 454 1018 457 1018 l 277 1018 q 272 1014 273 1018 q 273 1008 271 1010 l 513 768 q 517 766 515 766 l 639 766 q 644 769 643 766 q 644 775 646 772 l 458 1015 z "},"É":{"ha":1173,"x_min":0,"x_max":969,"o":"m 136 504 l 136 504 q 153 545 136 528 q 194 562 170 562 l 963 562 q 967 564 966 562 q 969 568 969 566 l 969 672 q 967 676 969 675 q 963 678 966 678 l 194 678 q 57 622 113 678 q 0 484 0 565 l 0 194 q 57 57 0 113 q 194 0 113 0 l 963 0 q 967 2 966 0 q 969 6 969 3 l 969 111 q 967 114 969 113 q 963 116 966 116 l 194 116 q 153 133 170 116 q 136 174 136 151 l 136 281 l 866 281 q 870 282 869 281 q 872 287 872 284 l 872 391 q 870 396 872 394 q 866 397 869 397 l 136 397 l 136 504 m 559 1015 l 374 774 q 374 768 372 771 q 379 765 376 765 l 500 765 q 505 767 503 765 l 745 1007 q 746 1014 747 1010 q 741 1017 745 1017 l 564 1017 q 559 1015 561 1017 l 559 1015 z "},"Ê":{"ha":1173,"x_min":0,"x_max":969,"o":"m 136 504 l 136 504 q 153 545 136 528 q 194 562 170 562 l 963 562 q 967 564 966 562 q 969 568 969 566 l 969 672 q 967 676 969 675 q 963 678 966 678 l 194 678 q 57 622 113 678 q 0 484 0 565 l 0 194 q 57 57 0 113 q 194 0 113 0 l 963 0 q 967 2 966 0 q 969 6 969 3 l 969 111 q 967 114 969 113 q 963 116 966 116 l 194 116 q 153 133 170 116 q 136 174 136 151 l 136 281 l 866 281 q 870 282 869 281 q 872 287 872 284 l 872 391 q 870 396 872 394 q 866 397 869 397 l 136 397 l 136 504 m 730 774 l 730 774 q 731 768 732 771 q 726 765 729 765 l 623 765 q 619 767 621 765 l 485 926 l 351 767 q 347 765 349 765 l 244 765 q 239 768 241 765 q 239 774 237 771 l 406 1015 q 410 1017 408 1017 l 559 1017 q 564 1015 562 1017 l 730 774 z "},"Ë":{"ha":1173,"x_min":0,"x_max":969,"o":"m 136 504 l 136 504 q 153 545 136 528 q 194 562 170 562 l 963 562 q 967 564 966 562 q 969 568 969 566 l 969 672 q 967 676 969 675 q 963 678 966 678 l 194 678 q 57 622 113 678 q 0 484 0 565 l 0 194 q 57 57 0 113 q 194 0 113 0 l 963 0 q 967 2 966 0 q 969 6 969 3 l 969 111 q 967 114 969 113 q 963 116 966 116 l 194 116 q 153 133 170 116 q 136 174 136 151 l 136 281 l 866 281 q 870 282 869 281 q 872 287 872 284 l 872 391 q 870 396 872 394 q 866 397 869 397 l 136 397 l 136 504 m 382 795 l 382 795 q 386 797 384 795 q 387 800 387 798 l 387 944 q 386 948 387 946 q 382 949 384 949 l 238 949 q 234 948 236 949 q 233 944 233 946 l 233 800 q 234 797 233 798 q 238 795 236 795 l 382 795 m 730 795 l 730 795 q 735 797 733 795 q 736 800 736 798 l 736 944 q 735 948 736 946 q 730 949 733 949 l 587 949 q 583 948 585 949 q 581 944 581 946 l 581 800 q 583 797 581 798 q 587 795 585 795 l 730 795 z "},"Ì":{"ha":339,"x_min":-238,"x_max":138,"o":"m 136 672 l 136 672 q 134 676 136 675 q 130 678 132 678 l 5 678 q 2 676 3 678 q 0 672 0 675 l 0 5 q 2 2 0 3 q 5 0 3 0 l 130 0 q 134 2 132 0 q 136 5 136 3 l 136 672 m -50 1015 l -50 1015 q -54 1017 -51 1017 l -231 1017 q -236 1014 -235 1017 q -235 1007 -237 1010 l 5 767 q 9 765 7 765 l 131 765 q 136 768 135 765 q 136 774 138 771 l -50 1015 z "},"Í":{"ha":339,"x_min":0,"x_max":375,"o":"m 136 672 l 136 672 q 134 676 136 675 q 130 678 132 678 l 5 678 q 2 676 3 678 q 0 672 0 675 l 0 5 q 2 2 0 3 q 5 0 3 0 l 130 0 q 134 2 132 0 q 136 5 136 3 l 136 672 m 187 1015 l 2 775 q 2 769 0 772 q 7 766 3 766 l 128 766 q 132 768 130 766 l 372 1008 q 374 1014 375 1010 q 368 1018 372 1018 l 191 1018 q 187 1015 189 1018 l 187 1015 z "},"Î":{"ha":339,"x_min":-180,"x_max":315,"o":"m 136 672 l 136 672 q 134 676 136 675 q 130 678 132 678 l 5 678 q 2 676 3 678 q 0 672 0 675 l 0 5 q 2 2 0 3 q 5 0 3 0 l 130 0 q 134 2 132 0 q 136 5 136 3 l 136 672 m 313 774 l 313 774 q 314 768 315 771 q 309 765 312 765 l 206 765 q 202 767 203 765 l 68 926 l -66 767 q -71 765 -68 765 l -173 765 q -178 768 -176 765 q -178 774 -180 771 l -12 1015 q -7 1017 -9 1017 l 142 1017 q 147 1015 145 1017 l 313 774 z "},"Ï":{"ha":339,"x_min":-185,"x_max":319,"o":"m 134 672 l 134 672 q 133 676 134 675 q 128 678 131 678 l 4 678 q 0 676 2 678 q -1 672 -1 675 l -1 5 q 0 2 -1 3 q 4 0 2 0 l 128 0 q 133 2 131 0 q 134 5 134 3 l 134 672 m -36 795 l -36 795 q -32 797 -34 795 q -31 800 -31 798 l -31 944 q -32 948 -31 946 q -36 949 -34 949 l -180 949 q -183 948 -182 949 q -185 944 -185 946 l -185 800 q -183 797 -185 798 q -180 795 -182 795 l -36 795 m 313 795 l 313 795 q 317 797 315 795 q 319 800 319 798 l 319 944 q 317 948 319 946 q 313 949 315 949 l 170 949 q 165 948 167 949 q 163 944 163 946 l 163 800 q 165 797 163 798 q 170 795 167 795 l 313 795 z "},"Ð":{"ha":1308,"x_min":0,"x_max":1105,"o":"m 136 672 l 136 672 q 137 676 136 675 q 142 678 139 678 l 911 678 q 1048 621 991 678 q 1105 484 1105 564 l 1105 194 q 1048 57 1105 113 q 911 0 991 0 l 142 0 q 137 2 139 0 q 136 5 136 3 l 136 281 l 6 281 q 2 282 3 281 q 0 287 0 284 l 0 391 q 2 395 0 393 q 6 397 3 397 l 136 397 l 136 672 m 911 116 l 911 116 q 952 133 935 116 q 969 174 969 150 l 969 504 q 952 545 969 528 q 911 562 935 562 l 271 562 l 271 397 l 576 397 q 579 395 578 397 q 581 391 581 393 l 581 287 q 579 282 581 284 q 576 281 578 281 l 271 281 l 271 116 l 911 116 z "},"Ñ":{"ha":1172,"x_min":0,"x_max":968,"o":"m 833 672 l 833 672 q 834 676 833 675 q 839 678 836 678 l 963 678 q 967 676 965 678 q 968 672 968 675 l 968 5 q 967 2 968 3 q 963 0 965 0 l 711 0 l 709 0 q 587 66 631 2 l 271 536 q 222 562 252 562 l 136 562 l 136 5 q 134 2 136 3 q 130 0 132 0 l 5 0 q 2 2 3 0 q 0 5 0 3 l 0 672 q 2 676 0 675 q 5 678 3 678 l 258 678 l 259 678 q 382 612 337 675 l 697 142 q 746 116 716 116 l 833 116 l 833 672 m 629 945 l 629 945 q 631 948 629 947 q 635 950 633 950 l 720 950 q 725 948 723 950 q 726 944 726 947 l 726 927 q 677 823 726 863 q 563 794 629 783 l 409 826 q 360 814 380 831 q 339 770 339 797 l 339 770 q 337 766 339 767 q 334 764 336 764 l 248 764 q 244 766 245 764 q 242 770 242 768 l 242 787 q 291 891 242 852 q 406 920 340 931 l 559 888 q 608 900 587 883 q 629 945 629 917 l 629 945 z "},"Ò":{"ha":1173,"x_min":0,"x_max":969,"o":"m 775 678 l 775 678 q 912 622 856 678 q 969 484 969 565 l 969 194 q 912 57 969 113 q 775 0 856 0 l 194 0 q 57 57 114 0 q 0 194 0 113 l 0 484 q 57 622 0 565 q 194 678 114 678 l 775 678 m 833 504 l 833 504 q 817 545 833 528 q 775 562 800 562 l 194 562 q 153 545 170 562 q 136 504 136 528 l 136 174 q 153 133 136 151 q 194 116 170 116 l 775 116 q 817 133 800 116 q 833 174 833 151 l 833 504 m 458 1015 l 458 1015 q 454 1017 457 1017 l 277 1017 q 272 1014 273 1017 q 273 1007 271 1010 l 513 767 q 517 765 515 765 l 639 765 q 644 768 643 765 q 644 774 646 771 l 458 1015 z "},"Ó":{"ha":1173,"x_min":0,"x_max":969,"o":"m 775 678 l 775 678 q 912 622 856 678 q 969 484 969 565 l 969 194 q 912 57 969 113 q 775 0 856 0 l 194 0 q 57 57 114 0 q 0 194 0 113 l 0 484 q 57 622 0 565 q 194 678 114 678 l 775 678 m 833 504 l 833 504 q 817 545 833 528 q 775 562 800 562 l 194 562 q 153 545 170 562 q 136 504 136 528 l 136 174 q 153 133 136 151 q 194 116 170 116 l 775 116 q 817 133 800 116 q 833 174 833 151 l 833 504 m 560 1015 l 375 775 q 375 769 373 772 q 380 766 376 766 l 501 766 q 505 768 503 766 l 745 1008 q 747 1014 748 1010 q 741 1018 745 1018 l 564 1018 q 560 1015 562 1018 l 560 1015 z "},"Ô":{"ha":1173,"x_min":0,"x_max":969,"o":"m 775 678 l 775 678 q 912 622 856 678 q 969 484 969 565 l 969 194 q 912 57 969 113 q 775 0 856 0 l 194 0 q 57 57 114 0 q 0 194 0 113 l 0 484 q 57 622 0 565 q 194 678 114 678 l 775 678 m 833 504 l 833 504 q 817 545 833 528 q 775 562 800 562 l 194 562 q 153 545 170 562 q 136 504 136 528 l 136 174 q 153 133 136 151 q 194 116 170 116 l 775 116 q 817 133 800 116 q 833 174 833 151 l 833 504 m 730 774 l 730 774 q 731 768 732 771 q 726 765 729 765 l 623 765 q 619 767 621 765 l 485 926 l 351 767 q 347 765 349 765 l 244 765 q 239 768 241 765 q 239 774 237 771 l 406 1015 q 410 1017 408 1017 l 559 1017 q 564 1015 562 1017 l 730 774 z "},"Õ":{"ha":1173,"x_min":0,"x_max":969,"o":"m 775 678 l 775 678 q 912 622 856 678 q 969 484 969 565 l 969 194 q 912 57 969 113 q 775 0 856 0 l 194 0 q 57 57 114 0 q 0 194 0 113 l 0 484 q 57 622 0 565 q 194 678 114 678 l 775 678 m 833 504 l 833 504 q 817 545 833 528 q 775 562 800 562 l 194 562 q 153 545 170 562 q 136 504 136 528 l 136 174 q 153 133 136 151 q 194 116 170 116 l 775 116 q 817 133 800 116 q 833 174 833 151 l 833 504 m 630 944 l 630 944 q 632 948 630 946 q 635 949 633 949 l 721 949 q 725 948 724 949 q 727 943 727 946 l 727 926 q 678 822 727 862 q 564 793 629 782 l 410 825 q 360 813 381 831 q 340 769 340 796 l 340 769 q 338 765 340 766 q 334 764 336 764 l 248 764 q 244 765 246 764 q 243 769 243 767 l 243 787 q 292 891 243 851 q 406 920 340 930 l 560 887 q 609 899 588 882 q 630 944 630 916 l 630 944 z "},"Ö":{"ha":1173,"x_min":0,"x_max":969,"o":"m 775 678 l 775 678 q 912 622 856 678 q 969 484 969 565 l 969 194 q 912 57 969 113 q 775 0 856 0 l 194 0 q 57 57 114 0 q 0 194 0 113 l 0 484 q 57 622 0 565 q 194 678 114 678 l 775 678 m 833 504 l 833 504 q 817 545 833 528 q 775 562 800 562 l 194 562 q 153 545 170 562 q 136 504 136 528 l 136 174 q 153 133 136 151 q 194 116 170 116 l 775 116 q 817 133 800 116 q 833 174 833 151 l 833 504 m 382 795 l 382 795 q 386 797 384 795 q 387 800 387 798 l 387 944 q 386 948 387 946 q 382 949 384 949 l 238 949 q 234 948 236 949 q 233 944 233 946 l 233 800 q 234 797 233 798 q 238 795 236 795 l 382 795 m 730 795 l 730 795 q 735 797 733 795 q 736 800 736 798 l 736 944 q 735 948 736 946 q 730 949 733 949 l 587 949 q 583 948 585 949 q 581 944 581 946 l 581 800 q 583 797 581 798 q 587 795 585 795 l 730 795 z "},"×":{"ha":678,"x_min":0,"x_max":475,"o":"m 473 492 l 473 492 q 475 488 475 490 q 473 484 475 486 l 334 344 l 473 204 q 475 200 475 202 q 473 195 475 197 l 386 108 q 381 106 384 106 q 377 108 379 106 l 237 248 l 98 108 q 94 106 96 106 q 90 108 92 106 l 2 195 q 0 200 0 197 q 2 204 0 202 l 142 344 l 2 484 q 0 488 0 486 q 2 492 0 490 l 90 579 q 94 581 92 581 q 98 579 96 581 l 237 439 l 377 579 q 381 581 379 581 q 386 579 384 581 l 473 492 z "},"Ø":{"ha":1173,"x_min":0,"x_max":969,"o":"m 775 678 l 775 678 q 912 621 855 678 q 969 484 969 564 l 969 194 q 912 57 969 113 q 775 0 855 0 l 194 0 q 57 57 113 0 q 0 194 0 113 l 0 484 q 57 621 0 564 q 194 678 113 678 l 775 678 m 194 116 l 194 116 l 290 116 l 544 562 l 194 562 q 153 545 170 562 q 136 504 136 528 l 136 174 q 153 133 136 150 q 194 116 170 116 m 833 174 l 833 174 l 833 504 q 816 545 833 528 q 775 562 799 562 l 680 562 l 425 116 l 775 116 q 816 133 799 116 q 833 174 833 150 z "},"Ù":{"ha":1173,"x_min":0,"x_max":969,"o":"m 969 672 l 969 672 q 967 676 969 675 q 963 678 966 678 l 840 678 q 835 676 837 678 q 833 672 833 675 l 833 174 q 817 133 833 150 q 775 116 800 116 l 194 116 q 153 133 170 116 q 136 174 136 150 l 136 672 q 134 676 136 675 q 130 678 132 678 l 6 678 q 2 676 3 678 q 0 672 0 675 l 0 193 q 57 57 0 113 q 194 0 114 0 l 775 0 q 912 57 856 0 q 969 193 969 113 l 969 672 m 458 1015 l 458 1015 q 454 1017 457 1017 l 277 1017 q 272 1014 273 1017 q 273 1007 271 1010 l 513 767 q 517 765 515 765 l 639 765 q 644 768 643 765 q 644 774 646 771 l 458 1015 z "},"Ú":{"ha":1173,"x_min":0,"x_max":969,"o":"m 969 672 l 969 672 q 967 676 969 675 q 963 678 966 678 l 840 678 q 835 676 837 678 q 833 672 833 675 l 833 174 q 817 133 833 150 q 775 116 800 116 l 194 116 q 153 133 170 116 q 136 174 136 150 l 136 672 q 134 676 136 675 q 130 678 132 678 l 6 678 q 2 676 3 678 q 0 672 0 675 l 0 193 q 57 57 0 113 q 194 0 114 0 l 775 0 q 912 57 856 0 q 969 193 969 113 l 969 672 m 559 1015 l 374 775 q 374 769 372 772 q 379 766 376 766 l 500 766 q 505 768 503 766 l 745 1008 q 746 1014 747 1010 q 741 1018 745 1018 l 564 1018 q 559 1015 561 1018 l 559 1015 z "},"Û":{"ha":1173,"x_min":0,"x_max":969,"o":"m 969 672 l 969 672 q 967 676 969 675 q 963 678 966 678 l 840 678 q 835 676 837 678 q 833 672 833 675 l 833 174 q 817 133 833 150 q 775 116 800 116 l 194 116 q 153 133 170 116 q 136 174 136 150 l 136 672 q 134 676 136 675 q 130 678 132 678 l 6 678 q 2 676 3 678 q 0 672 0 675 l 0 193 q 57 57 0 113 q 194 0 114 0 l 775 0 q 912 57 856 0 q 969 193 969 113 l 969 672 m 731 775 l 731 775 q 731 769 733 772 q 726 766 730 766 l 624 766 q 620 768 621 766 l 486 926 l 352 768 q 347 766 350 766 l 245 766 q 240 769 241 766 q 240 775 238 772 l 406 1015 q 411 1018 408 1018 l 560 1018 q 565 1015 563 1018 l 731 775 z "},"Ü":{"ha":1173,"x_min":0,"x_max":969,"o":"m 969 672 l 969 672 q 967 676 969 675 q 963 678 966 678 l 840 678 q 835 676 837 678 q 833 672 833 675 l 833 174 q 817 133 833 150 q 775 116 800 116 l 194 116 q 153 133 170 116 q 136 174 136 150 l 136 672 q 134 676 136 675 q 130 678 132 678 l 6 678 q 2 676 3 678 q 0 672 0 675 l 0 193 q 57 57 0 113 q 194 0 114 0 l 775 0 q 912 57 856 0 q 969 193 969 113 l 969 672 m 382 795 l 382 795 q 386 797 385 795 q 388 800 388 798 l 388 944 q 386 948 388 946 q 382 949 385 949 l 239 949 q 235 948 237 949 q 233 944 233 946 l 233 800 q 235 797 233 798 q 239 795 237 795 l 382 795 m 731 795 l 731 795 q 735 797 734 795 q 737 800 737 798 l 737 944 q 735 948 737 946 q 731 949 734 949 l 588 949 q 584 948 585 949 q 582 944 582 946 l 582 800 q 584 797 582 798 q 588 795 585 795 l 731 795 z "},"Ý":{"ha":1188,"x_min":0,"x_max":985,"o":"m 985 673 l 985 673 q 983 676 985 675 q 979 678 981 678 l 854 678 q 851 676 852 678 q 849 673 849 675 l 849 368 l 332 368 q 279 401 298 368 l 149 675 q 144 678 147 678 l 6 678 q 2 676 3 678 q 1 670 0 673 l 162 332 q 227 259 184 286 q 319 233 269 233 l 849 233 l 849 6 q 851 2 849 3 q 854 0 852 0 l 979 0 q 983 2 981 0 q 985 6 985 3 l 985 673 m 560 1015 l 375 774 q 375 768 373 771 q 380 765 376 765 l 501 765 q 505 767 503 765 l 745 1007 q 747 1014 748 1010 q 741 1017 745 1017 l 564 1017 q 560 1015 562 1017 l 560 1015 z "},"Þ":{"ha":1172,"x_min":0,"x_max":968,"o":"m 775 562 l 775 562 q 912 505 855 562 q 968 368 968 448 l 968 310 q 912 173 968 230 q 775 116 855 116 l 136 116 l 136 6 q 134 2 136 3 q 130 0 132 0 l 5 0 q 2 2 3 0 q 0 6 0 3 l 0 672 q 2 676 0 675 q 5 678 3 678 l 130 678 q 134 676 132 678 q 136 672 136 675 l 136 562 l 775 562 m 775 233 l 775 233 q 816 250 799 233 q 833 291 833 267 l 833 387 q 816 429 833 412 q 775 446 799 446 l 136 446 l 136 233 l 775 233 z "},"ß":{"ha":1172,"x_min":0,"x_max":968,"o":"m 815 393 l 815 393 q 925 326 882 378 q 968 203 968 273 l 968 194 q 912 57 968 113 q 775 0 855 0 l 277 0 q 273 2 275 0 q 271 6 271 3 l 271 111 q 273 114 271 113 q 277 116 275 116 l 775 116 q 816 133 799 116 q 833 174 833 151 l 833 223 q 816 264 833 247 q 775 281 799 281 l 640 281 l 277 281 q 273 282 275 281 q 271 287 271 284 l 271 391 q 273 396 271 394 q 277 397 275 397 l 640 397 q 680 414 663 397 q 697 455 697 431 l 697 504 q 680 545 697 528 q 640 562 663 562 l 194 562 q 153 545 170 562 q 136 504 136 528 l 136 -130 q 134 -134 136 -132 q 130 -136 132 -136 l 5 -136 q 2 -134 3 -136 q 0 -130 0 -132 l 0 484 q 57 622 0 565 q 194 678 113 678 l 640 678 q 776 622 720 678 q 833 484 833 565 l 833 475 q 815 393 833 431 z "},"à":{"ha":1173,"x_min":0,"x_max":969,"o":"m 0 485 l 0 485 q 57 622 0 565 q 194 678 113 678 l 775 678 q 912 622 855 678 q 969 485 969 565 l 969 6 q 967 2 969 3 q 963 0 966 0 l 839 0 q 835 2 837 0 q 833 6 833 3 l 833 223 l 136 223 l 136 6 q 134 2 136 3 q 130 0 132 0 l 6 0 q 2 2 3 0 q 0 6 0 3 l 0 485 m 833 339 l 833 339 l 833 504 q 816 545 833 528 q 775 562 799 562 l 194 562 q 153 545 170 562 q 136 504 136 528 l 136 339 l 833 339 m 459 1015 l 459 1015 q 455 1017 458 1017 l 278 1017 q 273 1014 274 1017 q 274 1007 271 1010 l 514 767 q 518 765 516 765 l 640 765 q 645 768 644 765 q 644 774 646 771 l 459 1015 z "},"á":{"ha":1173,"x_min":0,"x_max":969,"o":"m 0 485 l 0 485 q 57 622 0 565 q 194 678 113 678 l 775 678 q 912 622 855 678 q 969 485 969 565 l 969 6 q 967 2 969 3 q 963 0 966 0 l 839 0 q 835 2 837 0 q 833 6 833 3 l 833 223 l 136 223 l 136 6 q 134 2 136 3 q 130 0 132 0 l 6 0 q 2 2 3 0 q 0 6 0 3 l 0 485 m 833 339 l 833 339 l 833 504 q 816 545 833 528 q 775 562 799 562 l 194 562 q 153 545 170 562 q 136 504 136 528 l 136 339 l 833 339 m 559 1015 l 374 775 q 374 769 372 772 q 379 766 376 766 l 500 766 q 505 768 503 766 l 745 1008 q 746 1014 747 1010 q 741 1018 745 1018 l 564 1018 q 559 1015 561 1018 l 559 1015 z "},"â":{"ha":1173,"x_min":0,"x_max":969,"o":"m 0 485 l 0 485 q 57 622 0 565 q 194 678 113 678 l 775 678 q 912 622 855 678 q 969 485 969 565 l 969 6 q 967 2 969 3 q 963 0 966 0 l 839 0 q 835 2 837 0 q 833 6 833 3 l 833 223 l 136 223 l 136 6 q 134 2 136 3 q 130 0 132 0 l 6 0 q 2 2 3 0 q 0 6 0 3 l 0 485 m 833 339 l 833 339 l 833 504 q 816 545 833 528 q 775 562 799 562 l 194 562 q 153 545 170 562 q 136 504 136 528 l 136 339 l 833 339 m 730 774 l 730 774 q 731 768 732 771 q 726 765 729 765 l 623 765 q 619 767 621 765 l 485 926 l 351 767 q 347 765 349 765 l 244 765 q 239 768 241 765 q 239 774 237 771 l 406 1015 q 410 1017 408 1017 l 559 1017 q 564 1015 562 1017 l 730 774 z "},"ã":{"ha":1173,"x_min":0,"x_max":969,"o":"m 0 485 l 0 485 q 57 622 0 565 q 194 678 113 678 l 775 678 q 912 622 855 678 q 969 485 969 565 l 969 6 q 967 2 969 3 q 963 0 966 0 l 839 0 q 835 2 837 0 q 833 6 833 3 l 833 223 l 136 223 l 136 6 q 134 2 136 3 q 130 0 132 0 l 6 0 q 2 2 3 0 q 0 6 0 3 l 0 485 m 833 339 l 833 339 l 833 504 q 816 545 833 528 q 775 562 799 562 l 194 562 q 153 545 170 562 q 136 504 136 528 l 136 339 l 833 339 m 630 944 l 630 944 q 632 948 630 946 q 635 949 633 949 l 721 949 q 725 948 724 949 q 727 943 727 946 l 727 926 q 678 822 727 862 q 564 793 629 782 l 410 825 q 360 813 381 831 q 340 769 340 796 l 340 769 q 338 765 340 766 q 334 764 336 764 l 248 764 q 244 765 246 764 q 243 769 243 767 l 243 787 q 292 891 243 851 q 406 920 340 930 l 560 887 q 609 899 588 882 q 630 944 630 916 l 630 944 z "},"ä":{"ha":1173,"x_min":0,"x_max":969,"o":"m 0 485 l 0 485 q 57 622 0 565 q 194 678 113 678 l 775 678 q 912 622 855 678 q 969 485 969 565 l 969 6 q 967 2 969 3 q 963 0 966 0 l 839 0 q 835 2 837 0 q 833 6 833 3 l 833 223 l 136 223 l 136 6 q 134 2 136 3 q 130 0 132 0 l 6 0 q 2 2 3 0 q 0 6 0 3 l 0 485 m 833 339 l 833 339 l 833 504 q 816 545 833 528 q 775 562 799 562 l 194 562 q 153 545 170 562 q 136 504 136 528 l 136 339 l 833 339 m 382 795 l 382 795 q 386 797 384 795 q 387 800 387 798 l 387 944 q 386 948 387 946 q 382 949 384 949 l 238 949 q 234 948 236 949 q 233 944 233 946 l 233 800 q 234 797 233 798 q 238 795 236 795 l 382 795 m 730 795 l 730 795 q 735 797 733 795 q 736 800 736 798 l 736 944 q 735 948 736 946 q 730 949 733 949 l 587 949 q 583 948 585 949 q 581 944 581 946 l 581 800 q 583 797 581 798 q 587 795 585 795 l 730 795 z "},"å":{"ha":1173,"x_min":0,"x_max":969,"o":"m 0 485 l 0 485 q 57 622 0 565 q 194 678 113 678 l 775 678 q 912 622 855 678 q 969 485 969 565 l 969 6 q 967 2 969 3 q 963 0 966 0 l 839 0 q 835 2 837 0 q 833 6 833 3 l 833 223 l 136 223 l 136 6 q 134 2 136 3 q 130 0 132 0 l 6 0 q 2 2 3 0 q 0 6 0 3 l 0 485 m 833 339 l 833 339 l 833 504 q 816 545 833 528 q 775 562 799 562 l 194 562 q 153 545 170 562 q 136 504 136 528 l 136 339 l 833 339 m 484 818 l 484 818 q 436 798 456 818 q 416 750 416 779 q 436 702 416 722 q 484 682 456 682 q 532 702 512 682 q 552 750 552 722 q 532 798 552 779 q 484 818 512 818 m 484 896 l 484 896 l 484 896 q 587 853 545 896 q 629 750 629 810 q 587 648 629 690 q 484 605 545 605 q 381 648 424 605 q 339 750 339 690 q 381 853 339 810 q 484 896 424 896 z "},"æ":{"ha":1715,"x_min":0,"x_max":1512,"o":"m 1512 568 l 1512 568 q 1510 563 1512 565 q 1506 562 1508 562 l 872 562 l 872 397 l 1409 397 q 1413 395 1411 397 q 1415 391 1415 393 l 1415 287 q 1413 282 1415 284 q 1409 281 1411 281 l 872 281 l 872 174 q 889 133 872 150 q 930 116 906 116 l 1506 116 q 1510 114 1508 116 q 1512 111 1512 113 l 1512 5 q 1510 2 1512 3 q 1506 0 1508 0 l 911 0 q 788 51 839 0 q 736 174 736 102 l 736 222 l 136 222 l 136 5 q 134 2 136 3 q 130 0 132 0 l 6 0 q 2 2 3 0 q 0 5 0 3 l 0 484 q 57 621 0 564 q 194 678 114 678 l 1506 678 q 1510 676 1508 678 q 1512 672 1512 675 l 1512 568 m 736 339 l 736 339 l 736 562 l 194 562 q 153 545 170 562 q 136 504 136 528 l 136 339 l 736 339 z "},"ç":{"ha":1173,"x_min":0,"x_max":969,"o":"m 194 116 l 194 116 q 153 133 170 116 q 136 174 136 151 l 136 504 q 153 545 136 528 q 194 562 170 562 l 963 562 q 967 564 966 562 q 969 568 969 566 l 969 672 q 967 676 969 675 q 963 678 966 678 l 194 678 q 57 622 113 678 q 0 484 0 565 l 0 194 q 57 57 0 113 q 194 0 113 0 l 963 0 q 967 2 966 0 q 969 6 969 3 l 969 111 q 967 114 969 113 q 963 116 966 116 l 194 116 m 562 -99 l 562 -99 q 624 -124 598 -99 q 649 -186 649 -150 l 649 -273 q 624 -335 649 -309 q 562 -361 598 -361 l 326 -361 q 321 -359 323 -361 q 319 -355 319 -357 l 319 -273 q 321 -270 319 -271 q 326 -268 323 -268 l 550 -268 l 550 -192 l 376 -192 q 372 -190 374 -192 q 371 -184 370 -187 l 435 -4 q 440 0 436 0 l 526 0 q 531 -3 529 0 q 532 -8 532 -5 l 496 -99 l 562 -99 z "},"è":{"ha":1173,"x_min":0,"x_max":969,"o":"m 136 504 l 136 504 q 153 545 136 528 q 194 562 170 562 l 963 562 q 967 564 966 562 q 969 568 969 566 l 969 672 q 967 676 969 675 q 963 678 966 678 l 194 678 q 57 622 113 678 q 0 484 0 565 l 0 194 q 57 57 0 113 q 194 0 113 0 l 963 0 q 967 2 966 0 q 969 6 969 3 l 969 111 q 967 114 969 113 q 963 116 966 116 l 194 116 q 153 133 170 116 q 136 174 136 151 l 136 281 l 866 281 q 870 282 869 281 q 872 287 872 284 l 872 391 q 870 396 872 394 q 866 397 869 397 l 136 397 l 136 504 m 459 1015 l 459 1015 q 455 1017 458 1017 l 278 1017 q 273 1014 274 1017 q 274 1007 271 1010 l 514 767 q 518 765 516 765 l 640 765 q 645 768 644 765 q 644 774 646 771 l 459 1015 z "},"é":{"ha":1173,"x_min":0,"x_max":969,"o":"m 136 504 l 136 504 q 153 545 136 528 q 194 562 170 562 l 963 562 q 967 564 966 562 q 969 568 969 566 l 969 672 q 967 676 969 675 q 963 678 966 678 l 194 678 q 57 622 113 678 q 0 484 0 565 l 0 194 q 57 57 0 113 q 194 0 113 0 l 963 0 q 967 2 966 0 q 969 6 969 3 l 969 111 q 967 114 969 113 q 963 116 966 116 l 194 116 q 153 133 170 116 q 136 174 136 151 l 136 281 l 866 281 q 870 282 869 281 q 872 287 872 284 l 872 391 q 870 396 872 394 q 866 397 869 397 l 136 397 l 136 504 m 560 1015 l 375 774 q 375 768 373 771 q 380 765 376 765 l 501 765 q 505 767 503 765 l 745 1007 q 747 1014 748 1010 q 741 1017 745 1017 l 564 1017 q 560 1015 562 1017 l 560 1015 z "},"ê":{"ha":1173,"x_min":0,"x_max":969,"o":"m 136 504 l 136 504 q 153 545 136 528 q 194 562 170 562 l 963 562 q 967 564 966 562 q 969 568 969 566 l 969 672 q 967 676 969 675 q 963 678 966 678 l 194 678 q 57 622 113 678 q 0 484 0 565 l 0 194 q 57 57 0 113 q 194 0 113 0 l 963 0 q 967 2 966 0 q 969 6 969 3 l 969 111 q 967 114 969 113 q 963 116 966 116 l 194 116 q 153 133 170 116 q 136 174 136 151 l 136 281 l 866 281 q 870 282 869 281 q 872 287 872 284 l 872 391 q 870 396 872 394 q 866 397 869 397 l 136 397 l 136 504 m 730 774 l 730 774 q 731 768 732 771 q 726 765 729 765 l 623 765 q 619 767 621 765 l 485 926 l 351 767 q 347 765 349 765 l 244 765 q 239 768 241 765 q 239 774 237 771 l 406 1015 q 410 1017 408 1017 l 559 1017 q 564 1015 562 1017 l 730 774 z "},"ë":{"ha":1173,"x_min":0,"x_max":969,"o":"m 136 504 l 136 504 q 153 545 136 528 q 194 562 170 562 l 963 562 q 967 564 966 562 q 969 568 969 566 l 969 672 q 967 676 969 675 q 963 678 966 678 l 194 678 q 57 622 113 678 q 0 484 0 565 l 0 194 q 57 57 0 113 q 194 0 113 0 l 963 0 q 967 2 966 0 q 969 6 969 3 l 969 111 q 967 114 969 113 q 963 116 966 116 l 194 116 q 153 133 170 116 q 136 174 136 151 l 136 281 l 866 281 q 870 282 869 281 q 872 287 872 284 l 872 391 q 870 396 872 394 q 866 397 869 397 l 136 397 l 136 504 m 382 795 l 382 795 q 386 797 384 795 q 387 800 387 798 l 387 944 q 386 948 387 946 q 382 949 384 949 l 238 949 q 234 948 236 949 q 233 944 233 946 l 233 800 q 234 797 233 798 q 238 795 236 795 l 382 795 m 730 795 l 730 795 q 735 797 733 795 q 736 800 736 798 l 736 944 q 735 948 736 946 q 730 949 733 949 l 587 949 q 583 948 585 949 q 581 944 581 946 l 581 800 q 583 797 581 798 q 587 795 585 795 l 730 795 z "},"ì":{"ha":339,"x_min":-238,"x_max":138,"o":"m 136 672 l 136 672 q 134 676 136 675 q 130 678 132 678 l 5 678 q 2 676 3 678 q 0 672 0 675 l 0 5 q 2 2 0 3 q 5 0 3 0 l 130 0 q 134 2 132 0 q 136 5 136 3 l 136 672 m -50 1015 l -50 1015 q -54 1017 -52 1017 l -231 1017 q -236 1014 -235 1017 q -235 1007 -238 1010 l 5 767 q 9 765 7 765 l 131 765 q 136 768 134 765 q 136 774 138 771 l -50 1015 z "},"í":{"ha":339,"x_min":0,"x_max":375,"o":"m 136 672 l 136 672 q 134 676 136 675 q 130 678 132 678 l 5 678 q 2 676 3 678 q 0 672 0 675 l 0 5 q 2 2 0 3 q 5 0 3 0 l 130 0 q 134 2 132 0 q 136 5 136 3 l 136 672 m 186 1015 l 2 775 q 1 769 0 772 q 7 766 3 766 l 128 766 q 132 767 130 766 l 372 1008 q 374 1014 375 1010 q 368 1017 372 1017 l 191 1017 q 186 1015 189 1017 l 186 1015 z "},"î":{"ha":339,"x_min":-180,"x_max":315,"o":"m 136 672 l 136 672 q 134 676 136 675 q 130 678 132 678 l 6 678 q 2 676 3 678 q 0 672 0 675 l 0 5 q 2 2 0 3 q 6 0 3 0 l 130 0 q 134 2 132 0 q 136 5 136 3 l 136 672 m 313 774 l 313 774 q 314 768 315 771 q 309 765 312 765 l 206 765 q 202 767 203 765 l 68 926 l -66 767 q -71 765 -68 765 l -173 765 q -178 768 -176 765 q -178 774 -180 771 l -12 1015 q -7 1017 -9 1017 l 142 1017 q 147 1015 145 1017 l 313 774 z "},"ï":{"ha":339,"x_min":-185,"x_max":319,"o":"m 134 672 l 134 672 q 133 676 134 675 q 129 678 131 678 l 5 678 q 0 676 2 678 q -1 672 -1 675 l -1 5 q 0 2 -1 3 q 5 0 2 0 l 129 0 q 133 2 131 0 q 134 5 134 3 l 134 672 m -36 795 l -36 795 q -32 797 -34 795 q -31 800 -31 798 l -31 944 q -32 948 -31 946 q -36 949 -34 949 l -180 949 q -183 948 -182 949 q -185 944 -185 946 l -185 800 q -183 797 -185 798 q -180 795 -182 795 l -36 795 m 313 795 l 313 795 q 317 797 315 795 q 319 800 319 798 l 319 944 q 317 948 319 946 q 313 949 315 949 l 170 949 q 165 948 167 949 q 163 944 163 946 l 163 800 q 165 797 163 798 q 170 795 167 795 l 313 795 z "},"ð":{"ha":1308,"x_min":0,"x_max":1105,"o":"m 136 672 l 136 672 q 137 676 136 675 q 142 678 139 678 l 911 678 q 1048 621 991 678 q 1105 484 1105 564 l 1105 194 q 1048 57 1105 113 q 911 0 991 0 l 142 0 q 137 2 139 0 q 136 5 136 3 l 136 281 l 6 281 q 2 282 3 281 q 0 287 0 284 l 0 391 q 2 395 0 393 q 6 397 3 397 l 136 397 l 136 672 m 911 116 l 911 116 q 952 133 935 116 q 969 174 969 150 l 969 504 q 952 545 969 528 q 911 562 935 562 l 271 562 l 271 397 l 576 397 q 579 395 578 397 q 581 391 581 393 l 581 287 q 579 282 581 284 q 576 281 578 281 l 271 281 l 271 116 l 911 116 z "},"ñ":{"ha":1173,"x_min":0,"x_max":969,"o":"m 0 5 l 0 5 q 2 2 0 3 q 6 0 3 0 l 130 0 q 134 2 132 0 q 136 5 136 3 l 136 503 q 153 545 136 528 q 194 562 170 562 l 775 562 q 817 545 800 562 q 833 503 833 528 l 833 5 q 835 2 833 3 q 840 0 837 0 l 963 0 q 967 2 966 0 q 969 5 969 3 l 969 484 q 912 621 969 564 q 775 678 856 678 l 194 678 q 57 621 114 678 q 0 484 0 564 l 0 5 m 630 944 l 630 944 q 632 948 630 946 q 635 949 633 949 l 721 949 q 725 948 724 949 q 727 943 727 946 l 727 926 q 678 822 727 862 q 564 793 629 782 l 410 825 q 360 813 381 831 q 340 769 340 796 l 340 769 q 338 765 340 766 q 334 764 336 764 l 248 764 q 244 765 246 764 q 243 769 243 767 l 243 787 q 292 891 243 851 q 406 920 340 930 l 560 887 q 609 899 588 882 q 630 944 630 916 l 630 944 z "},"ò":{"ha":1173,"x_min":0,"x_max":969,"o":"m 775 678 l 775 678 q 912 622 856 678 q 969 484 969 565 l 969 194 q 912 57 969 113 q 775 0 856 0 l 194 0 q 57 57 114 0 q 0 194 0 113 l 0 484 q 57 622 0 565 q 194 678 114 678 l 775 678 m 833 504 l 833 504 q 817 545 833 528 q 775 562 800 562 l 194 562 q 153 545 170 562 q 136 504 136 528 l 136 174 q 153 133 136 151 q 194 116 170 116 l 775 116 q 817 133 800 116 q 833 174 833 151 l 833 504 m 459 1015 l 459 1015 q 455 1018 458 1018 l 278 1018 q 273 1014 274 1018 q 274 1008 271 1010 l 514 768 q 518 766 516 766 l 640 766 q 645 769 644 766 q 644 775 646 772 l 459 1015 z "},"ó":{"ha":1173,"x_min":0,"x_max":969,"o":"m 775 678 l 775 678 q 912 622 856 678 q 969 484 969 565 l 969 194 q 912 57 969 113 q 775 0 856 0 l 194 0 q 57 57 114 0 q 0 194 0 113 l 0 484 q 57 622 0 565 q 194 678 114 678 l 775 678 m 833 504 l 833 504 q 817 545 833 528 q 775 562 800 562 l 194 562 q 153 545 170 562 q 136 504 136 528 l 136 174 q 153 133 136 151 q 194 116 170 116 l 775 116 q 817 133 800 116 q 833 174 833 151 l 833 504 m 559 1015 l 374 775 q 374 769 372 772 q 379 766 376 766 l 500 766 q 505 768 503 766 l 745 1008 q 746 1014 747 1010 q 741 1018 745 1018 l 564 1018 q 559 1015 561 1018 l 559 1015 z "},"ô":{"ha":1173,"x_min":0,"x_max":969,"o":"m 775 678 l 775 678 q 912 622 856 678 q 969 484 969 565 l 969 194 q 912 57 969 113 q 775 0 856 0 l 194 0 q 57 57 114 0 q 0 194 0 113 l 0 484 q 57 622 0 565 q 194 678 114 678 l 775 678 m 833 504 l 833 504 q 817 545 833 528 q 775 562 800 562 l 194 562 q 153 545 170 562 q 136 504 136 528 l 136 174 q 153 133 136 151 q 194 116 170 116 l 775 116 q 817 133 800 116 q 833 174 833 151 l 833 504 m 730 774 l 730 774 q 731 768 732 771 q 726 765 729 765 l 623 765 q 619 767 621 765 l 485 926 l 351 767 q 347 765 349 765 l 244 765 q 239 768 241 765 q 239 774 237 771 l 406 1015 q 410 1017 408 1017 l 559 1017 q 564 1015 562 1017 l 730 774 z "},"õ":{"ha":1173,"x_min":0,"x_max":969,"o":"m 775 678 l 775 678 q 912 622 856 678 q 969 484 969 565 l 969 194 q 912 57 969 113 q 775 0 856 0 l 194 0 q 57 57 114 0 q 0 194 0 113 l 0 484 q 57 622 0 565 q 194 678 114 678 l 775 678 m 833 504 l 833 504 q 817 545 833 528 q 775 562 800 562 l 194 562 q 153 545 170 562 q 136 504 136 528 l 136 174 q 153 133 136 151 q 194 116 170 116 l 775 116 q 817 133 800 116 q 833 174 833 151 l 833 504 m 630 944 l 630 944 q 632 948 630 946 q 635 949 633 949 l 721 949 q 725 948 724 949 q 727 943 727 946 l 727 926 q 678 822 727 862 q 564 793 629 782 l 410 825 q 360 813 381 831 q 340 769 340 796 l 340 769 q 338 765 340 766 q 334 764 336 764 l 248 764 q 244 765 246 764 q 243 769 243 767 l 243 787 q 292 891 243 851 q 406 920 340 930 l 560 887 q 609 899 588 882 q 630 944 630 916 l 630 944 z "},"ö":{"ha":1173,"x_min":0,"x_max":969,"o":"m 775 678 l 775 678 q 912 622 856 678 q 969 484 969 565 l 969 194 q 912 57 969 113 q 775 0 856 0 l 194 0 q 57 57 114 0 q 0 194 0 113 l 0 484 q 57 622 0 565 q 194 678 114 678 l 775 678 m 833 504 l 833 504 q 817 545 833 528 q 775 562 800 562 l 194 562 q 153 545 170 562 q 136 504 136 528 l 136 174 q 153 133 136 151 q 194 116 170 116 l 775 116 q 817 133 800 116 q 833 174 833 151 l 833 504 m 382 795 l 382 795 q 386 797 384 795 q 387 800 387 798 l 387 944 q 386 948 387 946 q 382 949 384 949 l 238 949 q 234 948 236 949 q 233 944 233 946 l 233 800 q 234 797 233 798 q 238 795 236 795 l 382 795 m 730 795 l 730 795 q 735 797 733 795 q 736 800 736 798 l 736 944 q 735 948 736 946 q 730 949 733 949 l 587 949 q 583 948 585 949 q 581 944 581 946 l 581 800 q 583 797 581 798 q 587 795 585 795 l 730 795 z "},"÷":{"ha":727,"x_min":0,"x_max":524,"o":"m 314 215 l 314 215 l 210 215 q 205 213 207 215 q 203 209 203 212 l 203 101 q 205 99 203 100 q 210 98 208 98 l 314 98 q 318 99 317 98 q 320 101 320 100 l 320 209 q 318 213 320 212 q 314 215 317 215 m 320 579 l 320 579 q 318 582 320 581 q 314 583 317 583 l 210 583 q 205 582 208 583 q 203 579 203 581 l 203 473 q 205 468 203 470 q 210 467 207 467 l 314 467 q 318 468 317 467 q 320 473 320 470 l 320 579 m 524 393 l 524 393 q 522 397 524 395 q 519 399 521 399 l 5 399 q 1 397 3 399 q 0 393 0 395 l 0 288 q 1 284 0 286 q 5 283 3 283 l 519 283 q 522 284 521 283 q 524 288 524 286 l 524 393 z "},"ø":{"ha":1173,"x_min":0,"x_max":969,"o":"m 775 678 l 775 678 q 912 621 855 678 q 969 484 969 564 l 969 194 q 912 57 969 113 q 775 0 855 0 l 194 0 q 57 57 113 0 q 0 194 0 113 l 0 484 q 57 621 0 564 q 194 678 113 678 l 775 678 m 194 116 l 194 116 l 290 116 l 544 562 l 194 562 q 153 545 170 562 q 136 504 136 528 l 136 174 q 153 133 136 150 q 194 116 170 116 m 833 174 l 833 174 l 833 504 q 816 545 833 528 q 775 562 799 562 l 680 562 l 425 116 l 775 116 q 816 133 799 116 q 833 174 833 150 z "},"ù":{"ha":1173,"x_min":0,"x_max":969,"o":"m 969 672 l 969 672 q 967 676 969 675 q 963 678 966 678 l 840 678 q 835 676 837 678 q 833 672 833 675 l 833 174 q 817 133 833 150 q 775 116 800 116 l 194 116 q 153 133 170 116 q 136 174 136 150 l 136 672 q 134 676 136 675 q 130 678 132 678 l 6 678 q 2 676 3 678 q 0 672 0 675 l 0 193 q 57 57 0 113 q 194 0 114 0 l 775 0 q 912 57 856 0 q 969 193 969 113 l 969 672 m 459 1015 l 459 1015 q 455 1017 458 1017 l 278 1017 q 273 1014 274 1017 q 274 1007 271 1010 l 514 767 q 518 765 516 765 l 640 765 q 645 768 644 765 q 644 774 646 771 l 459 1015 z "},"ú":{"ha":1173,"x_min":0,"x_max":969,"o":"m 969 672 l 969 672 q 967 676 969 675 q 963 678 966 678 l 840 678 q 835 676 837 678 q 833 672 833 675 l 833 174 q 817 133 833 150 q 775 116 800 116 l 194 116 q 153 133 170 116 q 136 174 136 150 l 136 672 q 134 676 136 675 q 130 678 132 678 l 6 678 q 2 676 3 678 q 0 672 0 675 l 0 193 q 57 57 0 113 q 194 0 114 0 l 775 0 q 912 57 856 0 q 969 193 969 113 l 969 672 m 559 1015 l 374 774 q 374 768 372 771 q 379 765 376 765 l 500 765 q 505 767 503 765 l 745 1007 q 746 1014 747 1010 q 741 1017 745 1017 l 564 1017 q 559 1015 561 1017 l 559 1015 z "},"û":{"ha":1173,"x_min":0,"x_max":969,"o":"m 969 672 l 969 672 q 967 676 969 675 q 963 678 966 678 l 840 678 q 835 676 837 678 q 833 672 833 675 l 833 174 q 817 133 833 150 q 775 116 800 116 l 194 116 q 153 133 170 116 q 136 174 136 150 l 136 672 q 134 676 136 675 q 130 678 132 678 l 6 678 q 2 676 3 678 q 0 672 0 675 l 0 193 q 57 57 0 113 q 194 0 114 0 l 775 0 q 912 57 856 0 q 969 193 969 113 l 969 672 m 731 774 l 731 774 q 731 768 733 771 q 726 765 730 765 l 624 765 q 620 767 621 765 l 486 926 l 352 767 q 347 765 350 765 l 245 765 q 240 768 241 765 q 240 774 238 771 l 406 1015 q 411 1017 408 1017 l 560 1017 q 565 1015 563 1017 l 731 774 z "},"ü":{"ha":1173,"x_min":0,"x_max":969,"o":"m 969 672 l 969 672 q 967 676 969 675 q 963 678 966 678 l 840 678 q 835 676 837 678 q 833 672 833 675 l 833 174 q 817 133 833 150 q 775 116 800 116 l 194 116 q 153 133 170 116 q 136 174 136 150 l 136 672 q 134 676 136 675 q 130 678 132 678 l 6 678 q 2 676 3 678 q 0 672 0 675 l 0 193 q 57 57 0 113 q 194 0 114 0 l 775 0 q 912 57 856 0 q 969 193 969 113 l 969 672 m 382 795 l 382 795 q 386 797 385 795 q 388 800 388 798 l 388 944 q 386 948 388 946 q 382 949 385 949 l 239 949 q 235 948 237 949 q 233 944 233 946 l 233 800 q 235 797 233 798 q 239 795 237 795 l 382 795 m 731 795 l 731 795 q 735 797 734 795 q 737 800 737 798 l 737 944 q 735 948 737 946 q 731 949 734 949 l 588 949 q 584 948 585 949 q 582 944 582 946 l 582 800 q 584 797 582 798 q 588 795 585 795 l 731 795 z "},"ý":{"ha":1211,"x_min":0,"x_max":1008,"o":"m 872 673 l 872 673 q 874 676 872 675 q 878 678 876 678 l 1002 678 q 1006 676 1004 678 q 1008 673 1008 675 l 1008 483 q 985 408 1008 441 q 925 358 963 374 l 572 208 l 572 6 q 570 2 572 3 q 566 0 568 0 l 442 0 q 438 2 439 0 q 436 6 436 3 l 436 208 l 83 358 q 22 408 45 374 q 0 483 0 442 l 0 673 q 2 676 0 675 q 6 678 3 678 l 130 678 q 134 676 132 678 q 136 673 136 675 l 136 509 q 172 456 136 474 l 504 316 l 837 456 q 872 509 872 474 l 872 673 m 566 1015 l 381 774 q 381 768 379 771 q 386 765 382 765 l 507 765 q 511 767 509 765 l 751 1007 q 753 1014 754 1010 q 747 1017 751 1017 l 570 1017 q 566 1015 568 1017 l 566 1015 z "},"þ":{"ha":1172,"x_min":0,"x_max":968,"o":"m 775 562 l 775 562 q 912 505 855 562 q 968 368 968 448 l 968 310 q 912 173 968 230 q 775 116 855 116 l 136 116 l 136 6 q 134 2 136 3 q 130 0 132 0 l 5 0 q 2 2 3 0 q 0 6 0 3 l 0 672 q 2 676 0 675 q 5 678 3 678 l 130 678 q 134 676 132 678 q 136 672 136 675 l 136 562 l 775 562 m 775 233 l 775 233 q 816 250 799 233 q 833 291 833 267 l 833 387 q 816 429 833 412 q 775 446 799 446 l 136 446 l 136 233 l 775 233 z "},"ÿ":{"ha":1211,"x_min":0,"x_max":1008,"o":"m 872 673 l 872 673 q 874 676 872 675 q 878 678 876 678 l 1002 678 q 1006 676 1004 678 q 1008 673 1008 675 l 1008 483 q 985 408 1008 441 q 925 358 963 374 l 572 208 l 572 6 q 570 2 572 3 q 566 0 568 0 l 442 0 q 438 2 439 0 q 436 6 436 3 l 436 208 l 83 358 q 22 408 45 374 q 0 483 0 442 l 0 673 q 2 676 0 675 q 6 678 3 678 l 130 678 q 134 676 132 678 q 136 673 136 675 l 136 509 q 172 456 136 474 l 504 316 l 837 456 q 872 509 872 474 l 872 673 m 401 795 l 401 795 q 405 797 404 795 q 407 800 407 798 l 407 944 q 405 948 407 946 q 401 949 404 949 l 258 949 q 254 948 256 949 q 252 944 252 946 l 252 800 q 254 797 252 798 q 258 795 256 795 l 401 795 m 750 795 l 750 795 q 754 797 753 795 q 756 800 756 798 l 756 944 q 754 948 756 946 q 750 949 753 949 l 607 949 q 603 948 604 949 q 601 944 601 946 l 601 800 q 603 797 601 798 q 607 795 604 795 l 750 795 z "},"ˆ":{"ha":699,"x_min":0,"x_max":495,"o":"m 493 774 l 493 774 q 493 768 495 771 q 488 765 492 765 l 386 765 q 382 767 383 765 l 248 926 l 114 767 q 109 765 112 765 l 7 765 q 2 768 3 765 q 2 774 0 771 l 168 1015 q 173 1017 170 1017 l 322 1017 q 327 1015 325 1017 l 493 774 z "},"ˇ":{"ha":699,"x_min":0,"x_max":495,"o":"m 493 1008 l 327 768 q 322 765 325 765 l 173 765 q 168 768 170 765 l 2 1008 q 2 1014 0 1011 q 7 1017 3 1017 l 109 1017 q 114 1015 112 1017 l 248 857 l 382 1015 q 386 1017 383 1017 l 488 1017 q 493 1014 492 1017 q 493 1008 495 1011 l 493 1008 z "},"ˉ":{"ha":669,"x_min":0,"x_max":465,"o":"m 461 833 l 461 833 q 464 834 463 833 q 465 839 465 836 l 465 943 q 464 948 465 946 q 461 949 463 949 l 5 949 q 1 948 3 949 q 0 943 0 946 l 0 839 q 1 834 0 836 q 5 833 3 833 l 461 833 z "},"˘":{"ha":707,"x_min":0,"x_max":503,"o":"m 425 1013 l 425 1013 q 427 1016 425 1015 q 431 1017 429 1017 l 503 1017 l 503 1017 q 469 890 503 947 q 378 799 435 833 q 252 765 321 765 l 252 765 q 125 799 182 765 q 34 890 68 833 q 0 1017 0 947 l 0 1017 l 73 1017 q 76 1016 75 1017 q 78 1013 78 1015 l 83 994 q 145 898 99 935 q 252 862 192 862 l 252 862 q 358 898 311 862 q 420 994 404 935 l 425 1013 z "},"˙":{"ha":418,"x_min":0,"x_max":215,"o":"m 103 747 l 103 747 q 107 746 105 746 q 112 747 110 746 l 213 849 q 215 853 215 851 q 213 857 215 855 l 112 958 q 107 960 110 960 q 103 958 105 960 l 2 857 q 0 853 0 855 q 2 849 0 851 l 103 747 z "},"˚":{"ha":494,"x_min":0,"x_max":290,"o":"m 145 939 l 145 939 q 97 920 117 939 q 77 871 77 900 q 97 824 77 844 q 145 804 117 804 q 193 824 173 804 q 213 871 213 844 q 193 920 213 900 q 145 939 173 939 m 145 1017 l 145 1017 l 145 1017 q 248 975 205 1017 q 290 871 290 932 q 248 769 290 812 q 145 726 205 726 q 42 769 85 726 q 0 871 0 812 q 42 975 0 932 q 145 1017 85 1017 z "},"˛":{"ha":541,"x_min":0,"x_max":337,"o":"m 337 -298 l 337 -298 l 282 -362 q 167 -418 234 -415 q 49 -372 100 -420 l 49 -372 q 2 -255 0 -321 q 54 -141 3 -189 l 211 0 l 259 -47 l 117 -210 q 100 -258 100 -231 q 121 -304 101 -284 l 121 -304 q 166 -325 140 -323 q 213 -311 191 -327 l 290 -250 l 337 -298 z "},"˜":{"ha":688,"x_min":0,"x_max":484,"o":"m 387 944 l 387 944 q 389 948 387 946 q 393 949 391 949 l 478 949 q 483 948 481 949 q 484 943 484 946 l 484 926 q 435 822 484 862 q 321 793 387 782 l 167 825 q 118 813 138 831 q 97 769 97 796 l 97 769 q 95 765 97 766 q 92 764 94 764 l 5 764 q 2 765 3 764 q 0 769 0 767 l 0 787 q 49 891 0 851 q 163 920 98 930 l 317 887 q 366 899 345 882 q 387 944 387 916 l 387 944 z "},"˝":{"ha":830,"x_min":0,"x_max":627,"o":"m 224 1015 l 224 1015 q 229 1017 227 1017 l 349 1017 q 354 1014 353 1017 q 353 1007 355 1010 l 131 767 q 127 765 130 765 l 7 765 q 2 768 3 765 q 3 775 0 772 l 224 1015 m 496 1015 l 496 1015 q 500 1017 498 1017 l 620 1017 q 625 1014 624 1017 q 624 1007 627 1010 l 402 767 q 398 765 401 765 l 278 765 q 273 768 275 765 q 274 775 271 772 l 496 1015 z "},"†":{"ha":688,"x_min":0,"x_max":485,"o":"m 479 543 l 479 543 q 483 541 481 543 q 485 537 485 539 l 485 432 q 483 428 485 430 q 479 427 481 427 l 310 427 l 310 6 q 308 2 310 3 q 304 0 307 0 l 180 0 q 176 2 178 0 q 174 6 174 3 l 174 427 l 6 427 q 2 428 3 427 q 0 432 0 430 l 0 537 q 2 541 0 539 q 6 543 3 543 l 174 543 l 174 673 q 176 676 174 675 q 180 678 178 678 l 304 678 q 308 676 307 678 q 310 673 310 675 l 310 543 l 479 543 z "},"‡":{"ha":693,"x_min":0,"x_max":490,"o":"m 484 252 l 484 252 q 488 251 486 252 q 490 246 490 249 l 490 142 q 488 137 490 139 q 484 136 486 136 l 315 136 l 315 6 q 314 2 315 3 q 310 0 312 0 l 186 0 q 181 2 183 0 q 180 6 180 3 l 180 136 l 12 136 q 7 137 9 136 q 5 142 5 139 l 5 246 q 7 251 5 249 q 12 252 9 252 l 180 252 l 180 427 l 6 427 q 2 428 3 427 q 0 432 0 430 l 0 537 q 2 541 0 539 q 6 543 3 543 l 180 543 l 180 673 q 181 676 180 675 q 186 678 183 678 l 310 678 q 314 676 312 678 q 315 673 315 675 l 315 543 l 479 543 q 483 541 481 543 q 484 537 484 539 l 484 432 q 483 428 484 430 q 479 427 481 427 l 315 427 l 315 252 l 484 252 z "},"‹":{"ha":636,"x_min":0,"x_max":433,"o":"m 426 574 l 426 574 q 431 570 430 574 q 429 564 433 566 l 151 341 l 429 119 q 431 112 433 116 q 426 109 430 109 l 289 109 q 286 110 288 109 l 2 336 q 0 341 0 338 q 2 346 0 344 l 286 572 q 289 574 288 574 l 426 574 z "},"›":{"ha":635,"x_min":0,"x_max":432,"o":"m 7 574 l 143 574 q 146 572 145 574 l 430 346 q 432 341 432 344 q 430 336 432 338 l 146 110 q 143 109 145 109 l 7 109 q 1 112 3 109 q 3 119 0 116 l 281 341 l 3 564 q 1 570 0 566 q 7 574 3 574 l 7 574 z "},"⁄":{"ha":720,"x_min":0,"x_max":516,"o":"m 515 670 l 515 670 q 515 675 516 673 q 510 678 513 678 l 387 678 q 382 675 385 678 l 1 9 q 2 3 0 6 q 7 0 3 0 l 129 0 q 134 3 132 0 l 515 670 z "},"∕":{"ha":720,"x_min":0,"x_max":516,"o":"m 515 670 l 515 670 q 515 675 516 673 q 510 678 513 678 l 387 678 q 382 675 385 678 l 1 9 q 2 3 0 6 q 7 0 3 0 l 129 0 q 134 3 132 0 l 515 670 z "},"₣":{"ha":1308,"x_min":0,"x_max":1104,"o":"m 1099 678 l 1099 678 q 1102 676 1101 678 q 1104 672 1104 675 l 1104 568 q 1102 563 1104 565 q 1099 562 1101 562 l 330 562 q 288 545 305 562 q 271 504 271 528 l 271 436 l 1002 436 q 1006 434 1004 436 q 1008 430 1008 433 l 1008 326 q 1006 321 1008 323 q 1002 319 1004 319 l 271 319 l 271 208 l 575 208 q 579 207 578 208 q 581 202 581 205 l 581 117 q 579 113 581 115 q 575 111 578 111 l 271 111 l 271 5 q 270 2 271 3 q 265 0 268 0 l 141 0 q 137 2 139 0 q 136 5 136 3 l 136 111 l 5 111 q 2 113 3 111 q 0 117 0 115 l 0 202 q 2 207 0 205 q 5 208 3 208 l 136 208 l 136 504 q 186 627 136 576 q 310 678 237 678 l 1099 678 z "},"₤":{"ha":1172,"x_min":0,"x_max":968,"o":"m 963 117 l 963 117 q 967 115 965 117 q 968 111 968 113 l 968 6 q 967 2 968 3 q 963 0 965 0 l 5 0 q 2 2 3 0 q 0 6 0 3 l 0 111 q 2 115 0 113 q 5 117 3 117 l 77 117 q 118 134 101 117 q 136 174 136 151 l 136 223 l 5 223 q 2 225 3 223 q 0 229 0 227 l 0 295 q 2 299 0 297 q 5 300 3 300 l 136 300 l 136 378 l 5 378 q 2 380 3 378 q 0 384 0 382 l 0 450 q 2 454 0 452 q 5 456 3 456 l 136 456 l 136 504 q 186 627 136 576 q 310 678 237 678 l 866 678 q 870 676 868 678 q 871 673 871 675 l 871 568 q 870 564 871 566 q 866 562 868 562 l 329 562 q 288 545 305 562 q 271 504 271 528 l 271 456 l 575 456 q 579 454 578 456 q 581 450 581 452 l 581 384 q 579 380 581 382 q 575 378 578 378 l 271 378 l 271 300 l 575 300 q 579 299 578 300 q 581 295 581 297 l 581 229 q 579 225 581 227 q 575 223 578 223 l 271 223 l 271 117 l 963 117 z "},"₧":{"ha":2141,"x_min":0,"x_max":1938,"o":"m 1744 397 l 1744 397 q 1881 341 1824 397 q 1938 203 1938 284 l 1938 194 q 1881 57 1938 114 q 1744 0 1824 0 l 1207 0 q 1203 2 1204 0 q 1201 6 1201 3 l 1201 111 q 1203 115 1201 113 q 1207 117 1204 117 l 1744 117 q 1785 134 1768 117 q 1802 174 1802 151 l 1802 223 q 1785 264 1802 247 q 1744 281 1768 281 l 1356 281 q 1219 338 1276 281 q 1162 475 1162 395 l 1162 484 q 1179 562 1162 526 l 1036 562 l 1036 6 q 1035 2 1036 3 q 1031 0 1033 0 l 907 0 q 902 2 904 0 q 901 6 901 3 l 901 562 l 759 562 q 775 484 775 526 l 775 416 q 718 280 775 336 q 581 223 661 223 l 136 223 l 136 6 q 134 2 136 3 q 130 0 132 0 l 5 0 q 2 2 3 0 q 0 6 0 3 l 0 673 q 2 676 0 675 q 5 678 3 678 l 1893 678 q 1897 676 1895 678 q 1899 673 1899 675 l 1899 568 q 1897 564 1899 566 q 1893 562 1895 562 l 1356 562 q 1315 545 1332 562 q 1298 504 1298 528 l 1298 456 q 1315 414 1298 431 q 1356 397 1332 397 l 1744 397 m 640 397 l 640 397 l 640 504 q 622 545 640 528 q 581 562 605 562 l 136 562 l 136 339 l 581 339 q 622 356 605 339 q 640 397 640 373 z "},"€":{"ha":1308,"x_min":0,"x_max":1104,"o":"m 329 562 l 329 562 q 288 545 305 562 q 271 504 271 528 l 271 456 l 575 456 q 579 454 578 456 q 581 450 581 452 l 581 384 q 579 380 581 382 q 575 378 578 378 l 271 378 l 271 300 l 575 300 q 579 299 578 300 q 581 295 581 297 l 581 229 q 579 225 581 227 q 575 223 578 223 l 271 223 l 271 175 q 288 134 271 151 q 329 117 305 117 l 1099 117 q 1102 115 1101 117 q 1104 111 1104 113 l 1104 6 q 1102 2 1104 3 q 1099 0 1101 0 l 329 0 q 192 57 249 0 q 136 194 136 114 l 136 223 l 5 223 q 2 225 3 223 q 0 229 0 227 l 0 295 q 2 299 0 297 q 5 300 3 300 l 136 300 l 136 378 l 5 378 q 2 380 3 378 q 0 384 0 382 l 0 450 q 2 454 0 452 q 5 456 3 456 l 136 456 l 136 485 q 192 622 136 565 q 329 678 249 678 l 1099 678 q 1102 676 1101 678 q 1104 673 1104 675 l 1104 568 q 1102 564 1104 566 q 1099 562 1101 562 l 329 562 z "},"№":{"ha":1908,"x_min":0,"x_max":1705,"o":"m 833 673 l 833 673 q 834 676 833 675 q 839 678 836 678 l 963 678 q 967 676 965 678 q 968 673 968 675 l 968 6 q 967 2 968 3 q 963 0 965 0 l 711 0 l 709 0 q 587 66 631 3 l 271 536 q 222 562 252 562 l 136 562 l 136 6 q 134 2 136 3 q 130 0 132 0 l 5 0 q 2 2 3 0 q 0 6 0 3 l 0 673 q 2 676 0 675 q 5 678 3 678 l 258 678 l 259 678 q 382 612 337 676 l 697 142 q 746 117 717 117 l 833 117 l 833 673 m 1569 640 l 1569 640 q 1665 600 1626 640 q 1705 504 1705 560 l 1705 330 q 1665 234 1705 273 q 1569 194 1626 194 l 1221 194 q 1125 234 1164 194 q 1085 330 1085 273 l 1085 504 q 1125 600 1085 560 q 1221 640 1164 640 l 1569 640 m 1205 515 l 1205 515 l 1205 318 q 1210 307 1205 311 q 1221 302 1214 302 l 1569 302 q 1580 307 1575 302 q 1585 318 1585 311 l 1585 515 q 1580 527 1585 522 q 1569 531 1575 531 l 1221 531 q 1210 527 1214 531 q 1205 515 1205 522 m 1701 0 l 1701 0 q 1704 2 1702 0 q 1705 6 1705 3 l 1705 92 q 1704 95 1705 94 q 1701 97 1702 97 l 1089 97 q 1086 95 1087 97 q 1085 92 1085 94 l 1085 6 q 1086 2 1085 3 q 1089 0 1087 0 l 1701 0 z "},"™":{"ha":1563,"x_min":0,"x_max":1360,"o":"m 0 672 l 0 672 q 2 676 0 675 q 5 678 3 678 l 614 678 q 618 676 616 678 q 620 672 620 675 l 620 576 q 618 571 620 573 q 614 570 616 570 l 370 570 l 370 238 q 368 234 370 236 q 364 233 366 233 l 256 233 q 251 234 253 233 q 250 238 250 236 l 250 570 l 5 570 q 2 571 3 570 q 0 576 0 573 l 0 672 m 1187 678 l 1187 678 l 1354 678 q 1358 676 1356 678 q 1360 672 1360 675 l 1360 238 q 1358 234 1360 236 q 1354 233 1356 233 l 1246 233 q 1241 234 1243 233 q 1240 238 1240 236 l 1240 570 l 1215 570 q 1200 559 1204 570 l 1086 237 q 1081 233 1084 233 l 996 233 q 990 237 992 233 l 877 559 q 862 570 872 570 l 837 570 l 837 238 q 835 234 837 236 q 831 233 833 233 l 722 233 q 719 234 720 233 q 717 238 717 236 l 717 672 q 719 676 717 675 q 722 678 720 678 l 889 678 q 899 677 894 678 q 981 610 958 669 l 1038 446 l 1095 610 q 1177 677 1118 669 q 1187 678 1183 678 z "},"−":{"ha":688,"x_min":0,"x_max":485,"o":"m 481 284 l 481 284 q 484 286 482 284 q 485 290 485 288 l 485 395 q 484 398 485 397 q 481 400 482 400 l 5 400 q 1 398 3 400 q 0 395 0 397 l 0 290 q 1 286 0 288 q 5 284 3 284 l 481 284 z "},"≤":{"ha":650,"x_min":0,"x_max":485,"o":"m 446 743 l 446 640 q 443 634 446 636 l 112 461 l 443 289 q 446 283 446 287 l 446 180 q 444 175 446 177 q 437 175 441 174 l 3 401 q 0 407 0 404 l 0 516 q 3 521 0 519 l 437 747 q 444 747 441 749 q 446 743 446 746 l 446 743 m 481 0 l 481 0 q 484 2 482 0 q 485 5 485 3 l 485 111 q 484 114 485 113 q 481 116 482 116 l 5 116 q 1 114 3 116 q 0 111 0 113 l 0 5 q 1 2 0 3 q 5 0 3 0 l 481 0 z "},"≥":{"ha":650,"x_min":0,"x_max":485,"o":"m 0 743 l 0 743 q 3 747 0 746 q 9 747 5 749 l 443 521 q 446 516 446 519 l 446 407 q 443 401 446 404 l 9 175 q 3 175 5 174 q 0 180 0 177 l 0 283 q 3 289 0 287 l 334 461 l 3 634 q 0 640 0 636 l 0 743 m 481 0 l 481 0 q 484 2 482 0 q 485 5 485 3 l 485 111 q 484 114 485 113 q 481 116 482 116 l 5 116 q 1 114 3 116 q 0 111 0 113 l 0 5 q 1 2 0 3 q 5 0 3 0 l 481 0 z "}}}
